<svg viewBox="0 0 32 32"  xmlns="http://www.w3.org/2000/svg">
<path d="M28.2621 10.9088C28.0762 11.0528 24.7938 12.8992 24.7938 17.0048C24.7938 21.7536 28.9705 23.4336 29.0955 23.4752C29.0763 23.5776 28.432 25.776 26.8934 28.016C25.5214 29.9872 24.0886 31.9552 21.9089 31.9552C19.7292 31.9552 19.1683 30.6912 16.652 30.6912C14.1998 30.6912 13.3279 31.9968 11.3342 31.9968C9.34037 31.9968 7.9492 30.1728 6.34969 27.9328C4.49694 25.3024 3 21.216 3 17.3376C3 11.1168 7.05168 7.8176 11.0393 7.8176C13.158 7.8176 14.9242 9.2064 16.2545 9.2064C17.5207 9.2064 19.4952 7.7344 21.9057 7.7344C22.8193 7.7344 26.1016 7.8176 28.2621 10.9088ZM20.7614 5.1008C21.7583 3.92 22.4635 2.2816 22.4635 0.6432C22.4635 0.416 22.4442 0.1856 22.4025 0C20.7806 0.0608 18.8509 1.0784 17.6873 2.4256C16.7738 3.4624 15.9211 5.1008 15.9211 6.7616C15.9211 7.0112 15.9628 7.2608 15.982 7.3408C16.0846 7.36 16.2513 7.3824 16.418 7.3824C17.8733 7.3824 19.7036 6.4096 20.7614 5.1008Z" fill="white"/>
</svg>
