<svg viewBox="0 0 32 32"  xmlns="http://www.w3.org/2000/svg">
<path d="M22.467 0H9.53297C4.27647 0 0 4.27647 0 9.53297V22.467C0 27.7235 4.27647 32 9.53297 32H22.467C27.7235 32 32 27.7235 32 22.467V9.53297C31.9999 4.27647 27.7235 0 22.467 0ZM28.7808 22.467C28.7808 25.954 25.954 28.7808 22.467 28.7808H9.53297C6.046 28.7808 3.2192 25.954 3.2192 22.467V9.53297C3.2192 6.04594 6.046 3.2192 9.53297 3.2192H22.467C25.954 3.2192 28.7808 6.04594 28.7808 9.53297V22.467Z" fill="white"/>
<path d="M16 7.72366C11.4364 7.72366 7.72366 11.4364 7.72366 15.9999C7.72366 20.5635 11.4364 24.2763 16 24.2763C20.5636 24.2763 24.2763 20.5635 24.2763 15.9999C24.2763 11.4364 20.5636 7.72366 16 7.72366ZM16 21.0571C13.207 21.0571 10.9429 18.793 10.9429 16C10.9429 13.207 13.2071 10.9429 16 10.9429C18.793 10.9429 21.0571 13.207 21.0571 16C21.0571 18.7929 18.7929 21.0571 16 21.0571Z" fill="white"/>
<path d="M24.2921 9.76904C25.3874 9.76904 26.2753 8.88117 26.2753 7.78592C26.2753 6.69067 25.3874 5.8028 24.2921 5.8028C23.1969 5.8028 22.309 6.69067 22.309 7.78592C22.309 8.88117 23.1969 9.76904 24.2921 9.76904Z" fill="white"/>
</svg>
