<svg viewBox="0 0 32 32"  xmlns="http://www.w3.org/2000/svg">
<path d="M9.02511 7C14.0096 7 18.0499 11.0686 18.0499 16.0871C18.0499 21.1055 14.0093 25.1738 9.02511 25.1738C4.04097 25.1738 0 21.1055 0 16.0871C0 11.0686 4.04067 7 9.02511 7ZM23.4376 7.5323C25.9298 7.5323 27.9501 11.362 27.9501 16.0871H27.9504C27.9504 20.8109 25.9301 24.6418 23.4379 24.6418C20.9457 24.6418 18.9253 20.8109 18.9253 16.0871C18.9253 11.3632 20.9454 7.5323 23.4376 7.5323ZM30.4129 8.42334C31.2892 8.42334 32 11.8544 32 16.0871C32 20.3184 31.2896 23.7508 30.4129 23.7508C29.5363 23.7508 28.8262 20.3194 28.8262 16.0871C28.8262 11.8547 29.5366 8.42334 30.4129 8.42334Z" fill="white"/>
</svg>
