<svg viewBox="0 0 32 32"  xmlns="http://www.w3.org/2000/svg">
<g clip-path="url(#clip0_518_206)">
<path d="M12.87 4.71771L12.774 4.57689C12.804 4.40784 12.819 4.23648 12.8188 4.0648C12.7463 4.0148 12.6692 3.97193 12.5884 3.93677C12.5211 3.75236 12.4063 3.58897 12.2556 3.46309C11.9936 3.23602 11.6584 3.11102 11.3117 3.11102C10.9649 3.11102 10.6298 3.23602 10.3677 3.46309C10.1527 3.64872 10.0174 3.91007 9.99011 4.19282V4.19922C9.97967 4.20234 9.96896 4.20448 9.95811 4.20562C9.86101 4.24304 9.77663 4.30745 9.71492 4.39125V4.39765C9.69518 4.5698 9.6845 4.74287 9.68292 4.91614C9.68949 5.06031 9.69802 5.1734 9.70852 5.2554L9.74052 5.31301L9.74692 5.31941C9.81662 5.39948 9.91135 5.45362 10.0157 5.47304C10.018 5.53403 10.0356 5.59346 10.0669 5.64587C10.0627 5.64543 10.0584 5.64543 10.0541 5.64587C9.89572 5.69174 9.73359 5.73655 9.56773 5.78029C9.4504 5.81442 9.33307 5.84642 9.21574 5.87631C9.10123 5.91169 8.98991 5.95666 8.88295 6.01073L8.87015 6.01713L8.57577 6.78527C8.53162 6.9445 8.48469 7.10239 8.43497 7.25895C8.42007 7.3152 8.40514 7.37068 8.39017 7.42538C8.36346 7.67026 8.31866 7.97538 8.25578 8.34074C8.25258 8.49384 8.2698 8.64668 8.30697 8.79523C8.38864 9.10656 8.56 9.38703 8.79976 9.60177C8.81139 9.61194 8.82429 9.62055 8.83815 9.62737C8.87584 9.65894 8.91931 9.68286 8.96615 9.69778C8.99096 9.70587 9.01685 9.71019 9.04295 9.71058C9.37685 9.75046 9.71524 9.72876 10.0413 9.64657C10.1754 9.61127 10.306 9.56414 10.4317 9.50574C10.657 9.40943 10.8789 9.30701 11.0973 9.19849C11.3143 9.09667 11.5258 8.98342 11.7309 8.85923C11.942 8.73706 12.1511 8.61757 12.358 8.50077C12.5617 8.38683 12.7686 8.28228 12.9788 8.18711C13.1972 8.08733 13.4148 7.98918 13.6316 7.89266C13.6484 7.88735 13.6655 7.88308 13.6828 7.87986C13.7405 7.87138 13.793 7.84171 13.83 7.79664C13.8412 7.80474 13.8546 7.80921 13.8684 7.80944C13.8718 7.81183 13.874 7.81183 13.8748 7.80944C13.8793 7.80411 13.8816 7.79723 13.8812 7.79024C13.8836 7.78914 13.8836 7.78701 13.8812 7.78384C13.8769 7.76881 13.8726 7.75387 13.8684 7.73903V7.71983C13.8658 7.71579 13.8637 7.7115 13.862 7.70703L13.8556 7.70063C13.791 7.50378 13.7163 7.30962 13.6316 7.11813C13.5263 6.88474 13.4066 6.65813 13.2732 6.43961C13.1912 6.38213 13.1485 6.35226 13.1452 6.35C13.0995 6.32171 13.0525 6.29183 13.0044 6.26038C12.8746 6.1781 12.7424 6.09915 12.6076 6.02354C12.6037 6.02078 12.5994 6.01862 12.5948 6.01714C12.5311 5.9746 12.4623 5.94019 12.39 5.91472C12.3753 5.91035 12.3604 5.90609 12.3452 5.90192H12.3388L12.326 5.89552L12.4028 5.67148L12.7356 5.54346C12.7566 5.46974 12.7737 5.39496 12.7868 5.31942C12.8276 5.12088 12.8554 4.91988 12.87 4.71771L12.87 4.71771ZM12.9148 6.59324C12.9071 6.8068 12.9135 7.02064 12.934 7.23335L13.03 7.70063L13.0172 7.71983L13.0492 7.74543H13.062C13.0622 7.75136 13.0612 7.75728 13.059 7.76279C13.0568 7.7683 13.0535 7.77329 13.0492 7.77744C12.9311 7.86972 12.7994 7.94314 12.6588 7.99508C12.2655 8.1518 11.8773 8.32464 11.4941 8.51359C11.2181 8.65614 10.9227 8.7575 10.6173 8.81444C10.473 8.84615 10.323 8.83953 10.1821 8.79524C10.1649 8.78866 10.1457 8.78012 10.1245 8.76964C10.0509 8.63318 9.86747 8.3302 9.57413 7.86068L9.99652 8.12313C10.0145 7.88653 10.0123 7.64883 9.99012 7.4126C9.96977 7.26051 9.94844 7.10048 9.92612 6.93251C9.89259 6.70713 9.83466 6.48606 9.75333 6.2732L10.2781 6.19638C10.2936 6.22027 10.3085 6.24161 10.3229 6.2604C10.378 6.32861 10.4379 6.39278 10.5021 6.45243C10.559 6.50059 10.6166 6.5454 10.6749 6.58685C10.8051 6.68172 10.9471 6.75919 11.0973 6.8173C11.3042 6.90225 11.5264 6.94365 11.7501 6.93892C11.9785 6.94447 12.2013 6.86716 12.3772 6.72128L12.518 6.44603C12.6558 6.47869 12.7891 6.52813 12.9148 6.59326L12.9148 6.59324ZM12.5756 4.14802C12.5909 4.1723 12.6038 4.19803 12.614 4.22483C12.6351 4.39979 12.6154 4.57727 12.5564 4.74333C12.5471 4.77513 12.5294 4.80385 12.5052 4.82654C12.4308 4.83874 12.3548 4.83657 12.2812 4.82014C12.2848 4.81929 12.2848 4.81502 12.2812 4.80734L12.2364 4.67932C12.2369 4.67795 12.2348 4.67582 12.23 4.67292L12.2044 4.6025V4.59611C12.1975 4.57424 12.1839 4.55509 12.1655 4.54132C12.1472 4.52755 12.125 4.51985 12.102 4.51929C12.0215 4.50871 11.9383 4.50017 11.8524 4.49369C11.8262 4.49372 11.8004 4.50088 11.7778 4.51441C11.7553 4.52793 11.7368 4.54732 11.7245 4.57051L11.6541 4.66012C11.6526 4.66469 11.6504 4.66901 11.6477 4.67292L11.6029 4.72413C11.5525 4.75988 11.4917 4.77789 11.4301 4.77534C11.2302 4.79184 11.029 4.77453 10.8349 4.72413C10.8021 4.71061 10.7765 4.61246 10.7581 4.42968C10.7523 4.30152 10.7565 4.1731 10.7709 4.04561C10.7861 4.03646 10.801 4.02792 10.8157 4.02V4.0136C10.8249 4.01082 10.8335 4.00649 10.8413 4.00081C10.85 3.99965 10.8586 3.99751 10.8669 3.99441C11.441 3.93563 12.0212 3.98777 12.5756 4.14801L12.5756 4.14802ZM11.3213 5.04417C11.3555 5.04405 11.3897 5.04191 11.4237 5.03777C11.4754 5.0306 11.5309 5.02207 11.5901 5.01216C11.6455 5.00608 11.6995 4.99094 11.7501 4.96736C11.7529 4.96608 11.7552 4.9638 11.7565 4.96096C11.7682 4.94757 11.7788 4.93477 11.7884 4.92255C11.7982 4.90546 11.8089 4.88839 11.8204 4.87134C11.8326 4.85301 11.8433 4.83375 11.8524 4.81373C11.8646 4.80225 11.8754 4.78936 11.8844 4.77532C11.8871 4.77133 11.8892 4.76703 11.8908 4.76252C11.8972 4.76344 11.9037 4.76344 11.91 4.76252C11.962 4.75948 12.014 4.76599 12.0636 4.78172C12.0679 4.78958 12.0701 4.79839 12.07 4.80732C12.0794 4.82761 12.0879 4.84681 12.0956 4.86493C12.1016 4.88589 12.1059 4.9073 12.1084 4.92894C12.1119 4.93948 12.1183 4.95655 12.1276 4.98015C12.1314 4.99263 12.1335 5.00554 12.134 5.01856L12.1404 5.03136C12.1623 5.03746 12.1836 5.04386 12.2044 5.05056C12.2225 5.05473 12.2417 5.05899 12.262 5.06336C12.2681 5.06807 12.2745 5.07234 12.2812 5.07616C12.2924 5.07889 12.3032 5.0832 12.3132 5.08896C12.3205 5.09251 12.3267 5.09794 12.3312 5.10469C12.3357 5.11144 12.3384 5.11927 12.3388 5.12736C12.3299 5.17932 12.3235 5.21773 12.3196 5.24258C12.3127 5.2687 12.3042 5.29436 12.294 5.3194C12.2921 5.33085 12.2877 5.34176 12.2812 5.3514C12.2654 5.40335 12.2483 5.45242 12.23 5.49863L12.2044 5.56904C12.197 5.58788 12.1835 5.60367 12.166 5.61385C12.131 5.64081 12.0922 5.66239 12.0508 5.67786C11.995 5.69763 11.937 5.71053 11.878 5.71626C11.8639 5.7189 11.849 5.72103 11.8332 5.72266C11.8183 5.72373 11.8034 5.72373 11.7884 5.72266C11.7608 5.7248 11.7329 5.7248 11.7053 5.72266C11.6902 5.72187 11.6752 5.71973 11.6605 5.71626L11.5197 5.67786C11.479 5.65847 11.4363 5.63714 11.3917 5.61385C11.3478 5.58911 11.3087 5.55657 11.2765 5.51783C11.2586 5.47189 11.2436 5.42485 11.2317 5.37701C11.225 5.35879 11.2186 5.33958 11.2125 5.3194C11.2055 5.29153 11.1991 5.26379 11.1933 5.23618C11.1888 5.22612 11.1866 5.21519 11.1869 5.20418L11.1805 5.19778V5.19138C11.1817 5.1872 11.1817 5.18275 11.1805 5.17858C11.1819 5.16566 11.184 5.15284 11.1869 5.14017C11.1934 5.12272 11.1998 5.10565 11.2061 5.08896C11.2148 5.07096 11.2468 5.05816 11.3021 5.05055L11.3213 5.04417Z" fill="white"/>
<path d="M31.3015 3.81515L31.2951 3.80875C30.9082 3.39424 30.3941 3.12068 29.8342 3.0314C29.2743 2.94211 28.7006 3.04222 28.204 3.31587C28.1953 3.31731 28.1867 3.31945 28.1784 3.32227C28.045 3.40084 27.9187 3.49079 27.8008 3.59111C27.7856 3.60623 27.7684 3.61916 27.7496 3.62952C27.745 3.63651 27.7407 3.6429 27.7368 3.64872C27.6001 3.75704 27.4614 3.86799 27.3208 3.98158C27.3171 3.98324 27.3139 3.98592 27.3116 3.98932C27.3094 3.99272 27.3081 3.9967 27.308 4.00078L25.8361 5.18499C25.6873 5.30123 25.5401 5.41858 25.3945 5.53705C25.3897 5.53809 25.3853 5.54029 25.3817 5.54345H25.3753C25.3405 5.57489 25.3021 5.6069 25.2601 5.63947C25.1125 5.75584 24.9812 5.89148 24.8697 6.04274C24.7962 6.13996 24.7339 6.24518 24.6841 6.3564C24.6566 6.41008 24.6331 6.4657 24.6137 6.52283C24.612 6.52936 24.6098 6.53577 24.6073 6.54203L21.1258 8.99367C21.1257 8.99579 21.1236 8.99793 21.1194 9.00007C21.0148 8.92021 20.9124 8.84553 20.8122 8.77604C20.7686 8.75088 20.721 8.73355 20.6714 8.72483L12.998 7.58543C12.5471 7.55611 12.0956 7.63284 11.6797 7.80947C11.5706 7.85831 11.4618 7.90739 11.3533 7.9567C11.1591 8.05248 10.9629 8.1485 10.7645 8.24475C10.5949 8.33113 10.4242 8.41648 10.2525 8.50079C10.1631 8.54697 9.61488 8.85636 8.60776 9.42896C8.32701 9.61158 8.04543 9.79934 7.76299 9.99226C7.61371 10.0953 7.46225 10.1998 7.3086 10.3059C6.95118 10.5626 6.59279 10.8272 6.23344 11.0997C6.06929 11.2258 5.90503 11.3517 5.74065 11.4773C5.62027 11.5744 5.49868 11.6705 5.37587 11.7654C5.30666 11.8214 5.26098 11.9013 5.24787 11.9894C5.18189 12.5168 5.12642 13.0588 5.08148 13.6153C5.04866 14.0146 5.02093 14.4222 4.99828 14.8379C4.98205 15.2243 4.96711 15.6254 4.95348 16.0413C4.94767 16.3386 4.94127 16.6416 4.93428 16.9503C3.97698 17.8008 3.12579 18.5967 2.38073 19.3379C1.88261 19.8346 1.43249 20.3061 1.03037 20.7526C0.909389 21.266 0.861984 21.7941 0.889575 22.3208C0.79666 22.4404 0.70493 22.5663 0.614384 22.6985C0.613961 22.7034 0.611672 22.708 0.607985 22.7113C0.202577 23.3215 -8.22848e-05 24.0683 6.60087e-06 24.9517C-0.0206904 25.7479 0.190541 26.533 0.607985 27.2113C0.609076 27.2155 0.609076 27.2199 0.607985 27.2241C0.985624 27.8169 1.43361 28.1541 1.95195 28.2355L2.17594 28.2547H2.18874C2.19934 28.2563 2.21013 28.2563 2.22074 28.2547C2.22692 28.257 2.23375 28.257 2.23994 28.2547C2.24245 28.2568 2.24458 28.2568 2.24634 28.2547C2.33858 28.2574 2.47084 28.2553 2.64312 28.2483H25.5353C25.5623 28.2511 25.5895 28.2443 25.6121 28.2291C25.8172 28.1211 26.0121 27.9947 26.1944 27.8514H26.2008C27.1267 27.1653 27.8857 26.2792 28.4216 25.259C28.7598 24.6241 29.0342 23.9573 29.2407 23.2682C29.3591 22.8836 29.4553 22.4925 29.5287 22.0968C29.7005 21.1875 29.7798 20.2632 29.7655 19.3379C29.7627 19.161 29.7563 18.9839 29.7463 18.8066L30.6871 18.1345C30.7265 18.1078 30.7596 18.0727 30.7839 18.0318C30.8083 17.9909 30.8233 17.9451 30.8279 17.8977V17.8913C30.8332 17.8616 30.8332 17.8313 30.8279 17.8016V17.7952C30.8026 17.6892 30.7662 17.5862 30.7191 17.488C30.6864 17.4165 30.6544 17.3439 30.6231 17.2703V17.2767C30.596 17.2095 30.5683 17.1412 30.5399 17.0719H30.5335C30.4904 16.9706 30.4435 16.8725 30.3927 16.7775C30.3422 16.6843 30.291 16.5926 30.2391 16.5022C30.1996 16.4372 30.1591 16.3732 30.1175 16.3102C29.9477 16.0369 29.7504 15.7816 29.5287 15.5484C29.4225 15.4387 29.3092 15.3361 29.1895 15.2412C28.8853 14.9892 28.5355 14.798 28.1592 14.6779C28.155 14.6789 28.1506 14.6789 28.1464 14.6779C28.1384 14.676 28.1299 14.6738 28.1208 14.6715C27.3987 14.5172 26.6677 14.4082 25.932 14.345C25.4737 14.3053 24.9788 14.2754 24.4473 14.2554L24.4089 13.5897C24.4077 13.583 24.4055 13.5766 24.4025 13.5705C24.4018 13.5355 24.3953 13.5009 24.3833 13.4681C24.3743 13.4505 24.3636 13.4313 24.3513 13.4105C24.3396 13.3946 24.3268 13.3796 24.3129 13.3657L24.3065 13.3593C24.2529 13.2969 24.1772 13.2579 24.0953 13.2504L23.3209 13.1544C23.3109 13.0141 23.2938 12.8732 23.2697 12.7319C23.2257 12.4461 23.1615 12.1638 23.0777 11.887C22.9689 11.5288 22.8899 11.292 22.8409 11.1765C22.9879 11.1004 23.1351 11.0236 23.2825 10.946C23.754 10.6964 24.2254 10.4446 24.6969 10.1907C25.2394 9.90116 25.7833 9.61097 26.3288 9.32014C26.3313 9.32263 26.3343 9.32451 26.3377 9.32562C26.341 9.32673 26.3446 9.32704 26.348 9.32654C26.4459 9.33622 26.5443 9.33836 26.6424 9.33294C26.8745 9.32651 27.1038 9.28107 27.3208 9.19852C27.3255 9.19803 27.3277 9.1959 27.3272 9.19212C27.3459 9.18442 27.3652 9.178 27.3848 9.17292C27.3864 9.17254 27.3878 9.17175 27.3889 9.17062C27.39 9.16949 27.3908 9.16807 27.3912 9.16652L27.3976 9.16012L30.3223 7.9119C30.3249 7.91236 30.3275 7.91199 30.3298 7.91083C30.3321 7.90968 30.334 7.90781 30.3351 7.9055C30.6558 7.79116 30.9498 7.61254 31.1991 7.3806C31.3404 7.25203 31.467 7.10819 31.5767 6.95173V6.94533C31.5815 6.94589 31.5836 6.94376 31.5831 6.93893C31.8456 6.55327 31.9901 6.09953 31.9991 5.6331C32.0193 5.12349 31.8806 4.6202 31.6023 4.19284C31.5987 4.18789 31.5944 4.18357 31.5895 4.18004C31.5865 4.16939 31.5797 4.16025 31.5703 4.15444C31.4941 4.0367 31.4085 3.92538 31.3143 3.82158C31.3125 3.8211 31.3103 3.81897 31.3079 3.81518H31.3015L31.3015 3.81515ZM31.1735 4.46809L31.1671 4.46169C31.3937 4.80427 31.5058 5.20996 31.4871 5.6203C31.4841 5.88227 31.4262 6.14069 31.317 6.37886C31.2079 6.61704 31.05 6.82965 30.8535 7.00294C30.6519 7.19414 30.4119 7.34032 30.1495 7.43182C30.1496 7.43272 30.1475 7.43272 30.1431 7.43182C30.1431 7.435 30.141 7.43714 30.1367 7.43822C29.9011 7.5126 29.6538 7.54298 29.4072 7.52783C29.045 7.51657 28.693 7.40584 28.3896 7.20778C28.3834 7.20517 28.3769 7.20303 28.3704 7.20138C28.35 7.18546 28.3287 7.16839 28.3064 7.15017C28.2925 7.13988 28.2775 7.13128 28.2616 7.12456C28.1636 7.04622 28.0716 6.96063 27.9864 6.86852C27.8968 6.77083 27.8155 6.66593 27.7432 6.55486C27.6345 6.38487 27.5525 6.19922 27.5 6.00436L27.5064 5.99796C27.4747 5.85913 27.4555 5.71774 27.4488 5.57549C27.4442 5.44195 27.442 5.35873 27.4424 5.32584C27.3122 5.56016 27.2501 5.82623 27.2632 6.09398L25.0361 7.62383C25.0159 7.52894 25.0031 7.43264 24.9977 7.33578C24.9927 7.23974 24.9948 7.14346 25.0041 7.04773C25.0119 6.9697 25.0269 6.89256 25.0489 6.81729V6.80449H25.0553V6.79809C25.0565 6.79825 25.0565 6.79612 25.0553 6.79169C25.0787 6.71758 25.1065 6.64491 25.1385 6.57405C25.2043 6.44296 25.286 6.32042 25.3817 6.20918C25.3958 6.19777 25.4086 6.18489 25.4201 6.17078L25.9704 5.70349C26.5661 5.1888 27.1912 4.67458 27.8456 4.16082L28.2936 3.82156C28.6614 3.59374 29.0903 3.48426 29.5223 3.5079C29.7901 3.51818 30.0531 3.58179 30.296 3.69501C30.5388 3.80822 30.7567 3.96876 30.9367 4.16722C31.0225 4.26188 31.1016 4.36241 31.1735 4.46807L31.1735 4.46809ZM24.7161 7.07974C24.7089 7.16916 24.7068 7.25892 24.7097 7.34858C24.7193 7.48249 24.7407 7.6153 24.7737 7.74545C24.8154 7.89529 24.8756 8.03936 24.9529 8.17433V8.18073L18.8667 11.8806C18.8629 11.8693 18.8587 11.8565 18.8539 11.8422C18.8269 11.7679 18.8097 11.6904 18.8027 11.6117C18.8013 11.5675 18.8013 11.5227 18.8027 11.4773C18.8071 11.4599 18.8114 11.4407 18.8155 11.4197C18.8372 11.2943 18.8925 11.177 18.9754 11.0804C19.0214 11.0318 19.073 10.9889 19.129 10.9524C19.1332 10.9503 19.1354 10.9481 19.1354 10.946L24.7161 7.07974V7.07974ZM21.305 11.9638C21.3151 12.0573 21.3193 12.1514 21.3178 12.2455C21.3195 12.3548 21.3109 12.4641 21.2922 12.5719V12.5847C21.2838 12.6498 21.2731 12.7138 21.2602 12.7767V12.7703C21.2543 12.7938 21.2436 12.83 21.2282 12.8792C21.2247 12.885 21.2225 12.8916 21.2218 12.8984L21.209 12.9304C21.2045 12.9481 21.198 12.9653 21.1898 12.9816C21.1913 12.9857 21.1913 12.9902 21.1898 12.9944L19.8714 12.8216V12.7767C19.8818 12.754 19.8903 12.7304 19.897 12.7063L21.305 11.9638ZM22.3609 11.4069C22.3705 11.4311 22.3791 11.4545 22.3865 11.4773C22.4843 11.7147 22.5656 11.9585 22.6297 12.2071C22.6516 12.2932 22.6708 12.3786 22.6873 12.4631C22.6992 12.5131 22.7098 12.5643 22.7193 12.6167C22.7344 12.6951 22.7514 12.8252 22.7705 13.0072C22.7786 13.0649 22.785 13.1267 22.7897 13.1928L21.6826 13.052L21.7146 12.9496C21.7268 12.9127 21.7375 12.8743 21.7466 12.8344C21.7647 12.7607 21.7775 12.6858 21.785 12.6103C21.7889 12.6024 21.7911 12.5936 21.7914 12.5847C21.8059 12.4637 21.8123 12.3418 21.8106 12.2199C21.8068 12.0523 21.7897 11.8854 21.7594 11.7206L22.3609 11.4069L22.3609 11.4069ZM19.2122 10.3571L18.5723 10.7988C18.4857 10.9159 18.2809 11.507 17.9579 12.5719L16.1659 12.3671C16.1855 12.3364 16.2026 12.3043 16.2171 12.2711C16.4057 11.8949 16.4876 11.4743 16.4539 11.0548C16.4185 10.6523 16.2649 10.2693 16.0123 9.95385C16.0303 9.94432 16.0498 9.93784 16.0699 9.93465L19.2122 10.3571ZM17.9451 14.345C17.9432 14.345 17.9411 14.3428 17.9387 14.3386C17.9272 14.3268 17.9144 14.314 17.9003 14.3002L17.8875 14.2874C17.7913 14.1909 17.6887 14.1011 17.5803 14.0186C17.4979 13.9529 17.4105 13.8889 17.3179 13.8265C17.1515 13.7194 16.9784 13.6231 16.7995 13.5385C16.7917 13.533 16.783 13.5287 16.7739 13.5257C16.3186 13.3484 15.8438 13.2259 15.3596 13.1608C15.2251 13.1422 15.0844 13.1252 14.9372 13.1096H14.9308C14.702 13.0796 14.4588 13.054 14.2012 13.0328C14.1992 13.0339 14.197 13.0344 14.1948 13.0344C14.1926 13.0344 14.1904 13.0339 14.1884 13.0328H14.182C14.0819 13.0261 13.9582 13.0176 13.8108 13.0072C13.6896 12.9992 13.5531 12.9907 13.4012 12.9816L13.4076 12.5335L23.8521 13.8009L23.8713 14.2234L23.2442 14.2106C23.1677 14.2084 23.0919 14.2254 23.0236 14.26C22.9554 14.2947 22.897 14.346 22.8538 14.4091L22.521 14.8187L17.9451 14.345L17.9451 14.345ZM22.4826 15.3436C22.6811 15.3986 22.8757 15.467 23.065 15.5485C23.5331 15.742 23.9495 16.0423 24.2809 16.4254L24.2745 16.419C24.7036 16.9567 24.8764 17.6608 24.7929 18.5314L18.1435 17.9233C18.1426 17.7911 18.1405 17.6567 18.1371 17.52L18.9819 16.7007C19.0075 16.6792 19.0254 16.65 19.0331 16.6174V16.5918C19.0355 16.5857 19.0355 16.5788 19.0331 16.5726C19.0343 16.5696 19.035 16.5663 19.035 16.563C19.035 16.5597 19.0343 16.5565 19.0331 16.5534C19.0346 16.545 19.0346 16.5363 19.0331 16.5278C18.997 16.3634 18.9521 16.201 18.8987 16.0414C18.8838 15.9894 18.8668 15.9361 18.8475 15.8813C18.7255 15.5497 18.5644 15.2338 18.3675 14.9404L22.4826 15.3436L22.4826 15.3436ZM20.6778 9.33296L19.7499 9.97947L15.6092 9.41617C15.5213 9.42155 15.4349 9.441 15.3532 9.47378C15.2302 9.52771 15.1224 9.61128 15.0396 9.71702C15.1527 10.0748 15.2383 10.4408 15.2956 10.8116C15.3218 10.9816 15.341 11.1352 15.3532 11.2725C15.3672 11.3918 15.3757 11.4985 15.3788 11.5926C15.3911 11.7685 15.3954 11.9776 15.3916 12.2199C15.3903 12.2349 15.3882 12.2499 15.3852 12.2647L13.574 12.0342H13.5548C13.5467 11.867 13.5339 11.7006 13.5164 11.5349C13.5143 11.5168 13.5122 11.4976 13.51 11.4773C13.4961 11.3525 13.479 11.2266 13.4588 11.0997C13.4463 11.0031 13.4314 10.9049 13.414 10.8052C13.3839 10.6379 13.3498 10.4714 13.3116 10.3059C13.2971 10.247 13.2821 10.1872 13.2668 10.1267C13.1224 9.5444 12.9364 8.97322 12.7101 8.41759C12.7021 8.23248 12.8045 8.14499 13.0173 8.15515L20.5498 9.24334C20.5954 9.27283 20.6381 9.3027 20.6778 9.33296L20.6778 9.33296ZM24.0953 14.7611H24.1209C24.1433 14.7614 24.1646 14.7614 24.1849 14.7611C25.7923 14.833 27.0637 14.9738 27.9992 15.1836C28.2555 15.2676 28.4973 15.3907 28.716 15.5485C29.0994 15.8327 29.4233 16.1894 29.6696 16.5982C29.8637 16.8985 30.0349 17.2131 30.1816 17.5392L26.0473 17.1423C25.965 16.5396 25.6887 15.9801 25.2601 15.5485C24.9447 15.235 24.5736 14.9832 24.1657 14.8059C24.1416 14.7967 24.1181 14.786 24.0953 14.7739C24.0776 14.7696 24.0604 14.7632 24.0441 14.7547C24.0613 14.7577 24.0783 14.7598 24.0953 14.7611L24.0953 14.7611ZM25.6121 19.3828C25.614 19.3679 25.614 19.3528 25.6121 19.3379C25.6228 19.0292 25.6186 18.7198 25.5993 18.4098L29.164 18.7298C29.1866 18.9319 29.2015 19.1346 29.2088 19.3379C29.2113 19.3688 29.2135 19.3987 29.2152 19.4276V19.434C29.2171 19.5075 29.2171 19.58 29.2152 19.6516L28.0696 19.5812C28.0467 19.5798 28.024 19.5866 28.0056 19.6004C27.9884 19.6151 27.977 19.6356 27.9736 19.658C27.9722 19.6709 27.97 19.6837 27.9672 19.6964V19.7028C27.9604 19.8248 27.9519 19.9464 27.9416 20.0677C27.9408 20.0805 27.9426 20.0934 27.947 20.1056C27.9514 20.1177 27.9583 20.1288 27.9672 20.1381C27.9738 20.1474 27.9824 20.1552 27.9923 20.1607C28.0023 20.1663 28.0134 20.1695 28.0248 20.1701L29.2088 20.2469C29.1852 20.8556 29.1125 21.4614 28.9912 22.0584C28.9871 22.0559 28.9828 22.0538 28.9784 22.052L27.7048 21.9816C27.6841 21.9819 27.664 21.9886 27.6472 22.0008C27.6304 22.0117 27.617 22.0273 27.6088 22.0456C27.6028 22.0793 27.5964 22.1113 27.5896 22.1416H27.5832C27.5592 22.2458 27.5336 22.3482 27.5064 22.4489C27.502 22.4657 27.502 22.4833 27.5064 22.5001C27.5113 22.5184 27.5227 22.5343 27.5384 22.5449C27.5452 22.5514 27.5533 22.5564 27.5621 22.5597C27.5709 22.563 27.5803 22.5645 27.5896 22.5641L28.8568 22.6345C28.7172 23.194 28.5288 23.7402 28.2936 24.2668C28.2879 24.2654 28.2793 24.2633 28.268 24.2604L26.9561 24.2028C26.9366 24.2006 26.917 24.2028 26.8985 24.2092C26.8847 24.2216 26.8738 24.2369 26.8665 24.254C26.8551 24.2795 26.8423 24.3051 26.8281 24.3308V24.3372C26.8219 24.347 26.8175 24.3578 26.8153 24.3692C26.8102 24.3806 26.8037 24.3913 26.7961 24.4012C26.7577 24.4837 26.7171 24.5669 26.6745 24.6508C26.6677 24.6693 26.6655 24.689 26.6681 24.7085C26.6745 24.7279 26.6854 24.7454 26.7001 24.7597C26.7164 24.7736 26.7364 24.7824 26.7577 24.7853L28.0184 24.8429L27.9544 24.9709C27.8633 25.1416 27.7673 25.3102 27.6664 25.4766C27.4854 25.7732 27.2822 26.0557 27.0585 26.3215C27.042 26.3088 27.0217 26.3021 27.0009 26.3023L25.7081 26.2831C25.6929 26.2822 25.6776 26.2844 25.6633 26.2895C25.652 26.2972 25.6413 26.3058 25.6313 26.3151C25.5615 26.4097 25.4868 26.5014 25.4073 26.5904C25.4061 26.595 25.4039 26.5994 25.4009 26.6032H25.3945C25.365 26.6416 25.3329 26.6779 25.2985 26.712C25.2848 26.7328 25.2781 26.7575 25.2793 26.7824C25.2793 26.7933 25.2815 26.804 25.2859 26.814C25.2903 26.8239 25.2968 26.8328 25.3049 26.84C25.313 26.8488 25.323 26.8556 25.3341 26.86C25.3451 26.8644 25.357 26.8664 25.3689 26.8656L26.5401 26.8848C26.2155 27.1972 25.8619 27.478 25.4841 27.7234H22.0026L22.5337 27.2369L23.0777 26.6544C23.5631 26.0836 23.9739 25.4534 24.3001 24.7789C24.3326 24.711 24.3646 24.6427 24.3961 24.574C24.7309 23.8731 24.9926 23.1395 25.1769 22.3848C25.1985 22.3111 25.2177 22.2365 25.2345 22.1608C25.4566 21.2504 25.5831 20.3193 25.612 19.3827L25.6121 19.3828ZM18.2395 15.8173C18.2722 15.8924 18.302 15.967 18.3291 16.0413C18.3706 16.1451 18.4133 16.2731 18.4571 16.4254L13.3052 15.9773C13.0711 15.1747 12.717 14.5965 12.2428 14.2426C12.098 14.1335 11.9386 14.0451 11.7693 13.9802C11.5624 14.0308 11.3363 14.0969 11.0909 14.1786C10.0607 14.5242 8.70609 15.1451 7.027 16.0413C6.75479 16.1888 6.4732 16.3424 6.18223 16.5022C6.40024 16.3443 6.6157 16.1906 6.82861 16.0413C7.87323 15.3094 8.98043 14.671 10.1373 14.1338C10.5703 13.9415 10.9948 13.7729 11.4109 13.6281C11.6285 13.5562 11.8418 13.4901 12.0508 13.4297C12.2435 13.4437 12.4333 13.4565 12.6204 13.4681C12.8293 13.484 13.0362 13.499 13.2412 13.5129C13.5463 13.5335 13.8471 13.5528 14.1436 13.5705C14.1603 13.5747 14.1775 13.5769 14.1948 13.5769C14.262 13.5818 14.3282 13.586 14.3932 13.5897C14.7409 13.6148 15.0609 13.651 15.3531 13.6985C15.7179 13.7511 16.0776 13.8347 16.4283 13.9481C16.5293 13.9842 16.6232 14.0205 16.7099 14.057C16.804 14.1137 16.8936 14.1713 16.9787 14.2298C17.1055 14.3236 17.2272 14.424 17.3435 14.5307C17.4425 14.6266 17.5364 14.7269 17.6251 14.8315C17.698 14.9196 17.7664 15.0115 17.8298 15.1068C17.988 15.3304 18.1251 15.5683 18.2394 15.8173L18.2395 15.8173ZM6.57897 20.1701C6.57388 20.5537 6.62784 20.9358 6.73896 21.3031C6.40751 21.5245 5.93819 21.8382 5.331 22.244C5.03971 22.4449 4.71545 22.6669 4.35823 22.9097C4.30803 22.8322 4.25683 22.7597 4.20464 22.6921C4.05761 22.4993 3.87516 22.3364 3.66705 22.212L6.57901 20.1701H6.57897ZM7.31498 19.8756C7.31457 19.803 7.31457 19.7283 7.31498 19.6516L7.72457 19.3635C7.7196 19.5256 7.7196 19.6835 7.72457 19.8372C7.731 19.9383 7.73953 20.0365 7.75017 20.1317L8.58214 20.1637C8.61332 20.3628 8.65822 20.5596 8.71653 20.7526L7.85896 20.727C7.88748 20.8365 7.91948 20.9432 7.95496 21.047L8.83813 21.0726C8.89527 21.2092 8.96155 21.3418 9.03653 21.4695C9.21572 21.7939 9.48162 22.0621 9.8045 22.244C9.84987 22.2705 9.8969 22.294 9.94529 22.3144C9.49177 22.4144 9.12699 22.3973 8.85093 22.2632C9.27387 22.5739 9.76452 22.6209 10.3229 22.4041H10.3293C10.3824 22.38 10.4337 22.3522 10.4829 22.3208C10.5209 22.2978 10.5572 22.2721 10.5917 22.244C10.5941 22.2439 10.5965 22.2433 10.5987 22.2422C10.6009 22.2411 10.6029 22.2395 10.6045 22.2376C10.8398 22.0624 11.0433 21.848 11.2061 21.6039C11.6662 20.9356 11.9239 20.1489 11.9484 19.3379C11.9482 19.3337 11.9482 19.3294 11.9484 19.3251C11.9543 19.2253 11.9564 19.1272 11.9548 19.0307C11.9561 18.9075 11.9518 18.7858 11.942 18.6658C11.9098 18.0903 11.7409 17.5307 11.4492 17.0335C11.409 16.9654 11.3664 16.8992 11.3213 16.8351L11.8588 16.451C11.8816 16.4887 11.903 16.525 11.9228 16.5598C12.3037 17.1984 12.5172 17.9227 12.5436 18.6658C12.5506 18.7925 12.5527 18.9205 12.55 19.0499C12.5512 19.1446 12.549 19.2406 12.5436 19.3379C12.5177 19.9453 12.3923 20.5443 12.1724 21.111C12.0853 21.3398 11.9782 21.5604 11.8524 21.7704C11.8096 21.8454 11.7625 21.9181 11.7116 21.988C11.6865 22.0323 11.6587 22.075 11.6284 22.116C11.5968 22.1606 11.5626 22.2033 11.526 22.244C11.0046 22.9192 10.4073 23.2606 9.7341 23.2682H9.7213C9.06118 23.2673 8.50653 22.943 8.05735 22.2952C8.04567 22.2788 8.03499 22.2617 8.02535 22.244C7.99628 22.2049 7.96642 22.1622 7.93575 22.116C7.58839 21.5292 7.38243 20.8695 7.33417 20.1893C7.32722 20.0865 7.32082 19.9819 7.31497 19.8756L7.31498 19.8756ZM0.639976 24.35C0.642583 24.3484 0.644776 24.3462 0.646375 24.3436L0.966364 24.1132C0.883218 24.3769 0.83376 24.65 0.819169 24.9261C0.815871 25.0436 0.815871 25.1567 0.819169 25.2654C0.823487 25.3317 0.827754 25.3957 0.831969 25.4574L1.37595 25.4766C1.39641 25.6066 1.42635 25.735 1.46555 25.8607L0.902366 25.8415C0.923916 25.9148 0.947382 25.9852 0.972764 26.0527L1.54234 26.0655C1.58002 26.1533 1.62275 26.2388 1.67034 26.3216C1.79955 26.5657 2.00684 26.7595 2.25912 26.872C2.02554 26.9422 1.77507 26.9309 1.54874 26.84C1.68699 26.94 1.84923 27.0015 2.01898 27.0184C2.18872 27.0352 2.3599 27.0068 2.51511 26.9361C2.54841 26.9191 2.58049 26.8999 2.6111 26.8785C2.64037 26.8616 2.66819 26.8423 2.6943 26.8208C2.84753 26.7083 2.97969 26.5697 3.08469 26.4112C3.38575 25.9758 3.55262 25.4617 3.56467 24.9325V24.9261C3.61175 24.4101 3.50011 23.8919 3.24468 23.441C3.1189 23.2087 2.92445 23.021 2.6879 22.9034L3.07189 22.6345C3.14495 22.6862 3.21347 22.744 3.27668 22.8073C3.28044 22.8141 3.28472 22.8205 3.28948 22.8265C3.3815 22.9267 3.46299 23.0361 3.53267 23.153C3.849 23.6968 3.9898 24.3249 3.93586 24.9517C3.91829 25.3423 3.83612 25.7274 3.69267 26.0911C3.6382 26.2382 3.56961 26.3797 3.48787 26.5136C3.46184 26.5629 3.43187 26.61 3.39828 26.6544C3.38208 26.6841 3.36277 26.712 3.34068 26.7376C2.99047 27.2306 2.58515 27.4781 2.12471 27.4802C2.12275 27.4812 2.12055 27.4818 2.11831 27.4818C2.11608 27.4818 2.11388 27.4812 2.11191 27.4802C1.68759 27.4823 1.32921 27.2753 1.03675 26.8593C1.01279 26.8215 0.987188 26.7809 0.959956 26.7376C0.735624 26.3594 0.601999 25.9344 0.56957 25.4958C0.566752 25.4308 0.564619 25.3647 0.56317 25.2974C0.560454 25.1851 0.562587 25.0699 0.56957 24.9517C0.579025 24.7497 0.602548 24.5487 0.639968 24.35L0.639976 24.35ZM6.323 23.0058C6.36385 23.0485 6.40887 23.0871 6.4574 23.121L5.48463 23.6011L5.42063 23.1978L6.131 22.7625C6.1354 22.7646 6.13754 22.7668 6.1374 22.7689L6.1502 22.7625C6.18029 22.8204 6.21451 22.876 6.2526 22.9289L6.323 23.0058H6.323ZM5.26063 24.6829C5.31816 24.6719 5.38002 24.6569 5.44622 24.6381C5.47473 24.6378 5.50247 24.6378 5.52942 24.6381C5.6288 24.6373 5.72716 24.6581 5.81775 24.699C5.90834 24.7399 5.989 24.7999 6.0542 24.8749L6.0606 24.8813C6.11465 24.9421 6.16186 25.0086 6.20139 25.0797C6.36658 25.3761 6.44217 25.7142 6.41898 26.0527C6.4166 26.0892 6.41233 26.1255 6.40618 26.1615C6.39004 26.3976 6.33377 26.6292 6.23979 26.8464C6.20546 26.9357 6.1626 27.0215 6.1118 27.1025C6.09245 27.1337 6.07107 27.1637 6.0478 27.1921C6.03866 27.2081 6.02794 27.2231 6.0158 27.2369C6.00301 27.2577 5.99021 27.2769 5.9774 27.2945C5.89705 27.4104 5.79128 27.5064 5.66817 27.5752C5.54505 27.644 5.40784 27.6837 5.26703 27.6914H5.26063C5.13039 27.6892 5.00295 27.6533 4.89077 27.5871C4.77859 27.5209 4.68552 27.4267 4.62065 27.3137C4.6179 27.3064 4.61352 27.2999 4.60785 27.2945C4.60025 27.2769 4.59172 27.2577 4.58225 27.2369C4.45334 27.0076 4.38094 26.7509 4.37106 26.488C4.37104 26.4502 4.37104 26.4097 4.37106 26.3664C4.37128 26.3009 4.37341 26.2327 4.37746 26.1615C4.38198 26.1247 4.38624 26.0885 4.39026 26.0527C4.40078 25.9688 4.41573 25.8854 4.43506 25.8031C4.49668 25.5422 4.60982 25.2963 4.76784 25.0797C4.89167 24.9039 5.06242 24.7664 5.26063 24.6829V24.6829ZM7.09097 25.6558C7.10634 25.5523 7.12554 25.4498 7.14857 25.3486C7.23408 25.0303 7.38201 24.7322 7.58376 24.4716C7.73689 24.2542 7.94736 24.0836 8.19173 23.9787C8.26941 23.9659 8.34632 23.9488 8.42212 23.9275C8.45594 23.9259 8.48794 23.9238 8.51812 23.9211C8.6398 23.9207 8.76011 23.9468 8.87065 23.9976C8.98119 24.0485 9.07929 24.1229 9.1581 24.2156C9.16339 24.2187 9.16779 24.2231 9.1709 24.2284C9.23616 24.3023 9.29204 24.384 9.33729 24.4716C9.53083 24.8345 9.61318 25.2464 9.57408 25.6558C9.57093 25.7032 9.56667 25.7501 9.56128 25.7967C9.53286 26.0865 9.4572 26.3698 9.33729 26.6352C9.29108 26.7465 9.23541 26.8535 9.1709 26.9553C9.1473 26.99 9.1217 27.0242 9.0941 27.0577C9.08141 27.0785 9.06638 27.0979 9.0493 27.1153C9.03497 27.1387 9.01777 27.1602 8.9981 27.1793C8.73338 27.5023 8.44112 27.6645 8.12133 27.6658H8.11493C7.95656 27.6646 7.80135 27.6213 7.66525 27.5403C7.52916 27.4593 7.41708 27.3436 7.34055 27.2049C7.33737 27.1975 7.3331 27.189 7.32775 27.1793C7.31587 27.1608 7.30307 27.1394 7.28935 27.1153C7.13904 26.8332 7.05788 26.5195 7.05256 26.1999C7.05338 26.1517 7.05338 26.1027 7.05256 26.0527C7.05739 25.9696 7.06379 25.8842 7.07176 25.7967C7.07824 25.7501 7.08464 25.7032 7.09096 25.6558L7.09097 25.6558ZM13.4332 18.6658C13.4561 18.2279 13.4668 17.7862 13.4652 17.3408L17.7722 17.616V18.9026L16.5435 18.8258C16.5306 18.8251 16.5177 18.8269 16.5056 18.8313C16.4935 18.8357 16.4825 18.8426 16.4731 18.8514C16.4528 18.8673 16.4392 18.8901 16.4347 18.9154L16.4091 19.3251C16.41 19.3271 16.4105 19.3293 16.4105 19.3315C16.4105 19.3337 16.41 19.3359 16.4091 19.3379C16.4119 19.3611 16.4207 19.3832 16.4347 19.4019C16.4437 19.4117 16.4546 19.4195 16.4667 19.425C16.4788 19.4305 16.4918 19.4335 16.5051 19.4339L17.753 19.5171C17.7274 20.1435 17.6633 20.7677 17.5611 21.3863C17.5591 21.3873 17.5569 21.3878 17.5547 21.3878C17.5524 21.3878 17.5502 21.3873 17.5483 21.3863L16.3323 21.3159C16.3074 21.315 16.2829 21.3217 16.2619 21.3351C16.2454 21.3504 16.2343 21.3706 16.2299 21.3927L16.1467 21.8023C16.1431 21.8197 16.1453 21.8377 16.1531 21.8536C16.1578 21.8719 16.1692 21.8879 16.1851 21.8984C16.199 21.9121 16.217 21.921 16.2363 21.924L17.4459 21.9944C17.425 22.0964 17.4037 22.1988 17.3819 22.3016C17.2707 22.8276 17.1166 23.3436 16.9211 23.8443C16.9145 23.8425 16.9059 23.8404 16.8955 23.8379L15.6219 23.7803C15.602 23.7798 15.5822 23.7842 15.5643 23.7931C15.5492 23.8058 15.5362 23.821 15.5259 23.8379L15.3531 24.2412C15.3449 24.2615 15.3427 24.2837 15.3467 24.3052C15.3525 24.3265 15.3649 24.3455 15.3822 24.3593C15.3994 24.3731 15.4206 24.381 15.4427 24.382L16.6779 24.446C16.6693 24.4683 16.6586 24.4897 16.6459 24.51C16.5209 24.7876 16.3822 25.0607 16.2299 25.3294C16.0716 25.6136 15.8919 25.8854 15.6923 26.1423C15.673 26.1306 15.6509 26.124 15.6283 26.1231L14.3228 26.1039C14.3091 26.1051 14.296 26.1095 14.2844 26.1167C14.2698 26.1223 14.2567 26.131 14.246 26.1423L13.9196 26.5392C13.9056 26.5599 13.8988 26.5846 13.9004 26.6096C13.9014 26.6363 13.9129 26.6616 13.9324 26.68C13.9405 26.6887 13.9505 26.6955 13.9615 26.7C13.9726 26.7044 13.9845 26.7063 13.9964 26.7056L15.1739 26.7248C15.0019 26.8955 14.818 27.0538 14.6236 27.1985C14.3484 27.4006 14.0549 27.5763 13.7468 27.7234H9.37573C10.1295 27.187 10.7782 26.5166 11.2893 25.7454C11.9387 24.7864 12.4413 23.7356 12.7804 22.6281C12.8206 22.5026 12.859 22.3746 12.8956 22.244C13.1586 21.2944 13.3258 20.3208 13.3948 19.3379C13.3989 19.3039 13.4011 19.2697 13.4012 19.2355C13.4158 19.048 13.4265 18.8581 13.4332 18.6658L13.4332 18.6658ZM7.37898 25.6622C7.37473 25.7031 7.37047 25.7437 7.36618 25.7839C7.35828 25.8596 7.35402 25.9322 7.35339 26.0015C7.35199 26.0439 7.35199 26.0844 7.35339 26.1231L7.70537 26.1359C7.71237 26.2199 7.7252 26.3033 7.74377 26.3856L7.38538 26.3728C7.3962 26.4188 7.40687 26.4636 7.41738 26.5072L7.78857 26.5136C7.80942 26.5711 7.83511 26.6268 7.86537 26.68C7.93265 26.8189 8.03954 26.9347 8.17256 27.0129C8.19034 27.0243 8.20977 27.0329 8.23015 27.0385C8.20914 27.0442 8.18776 27.0485 8.16616 27.0513C8.03385 27.083 7.89487 27.0718 7.76937 27.0193C7.85683 27.0839 7.96027 27.1234 8.06854 27.1336C8.17681 27.1437 8.2858 27.1241 8.38375 27.0769C8.40886 27.0674 8.43255 27.0544 8.45415 27.0385C8.47047 27.0327 8.48564 27.024 8.49894 27.0129C8.49981 27.013 8.5007 27.0129 8.50153 27.0126C8.50236 27.0124 8.50312 27.0119 8.50374 27.0113C8.50436 27.0107 8.50483 27.0099 8.5051 27.0091C8.50538 27.0082 8.50546 27.0073 8.50534 27.0065C8.60907 26.9347 8.69994 26.846 8.77413 26.744C8.98252 26.4641 9.10883 26.1316 9.13892 25.7839C9.14327 25.7435 9.1454 25.7029 9.14532 25.6622C9.17173 25.3725 9.11395 25.0814 8.97893 24.8237C8.93879 24.7358 8.88121 24.6571 8.80971 24.5922C8.7382 24.5272 8.65425 24.4775 8.56294 24.446C8.53089 24.4388 8.49676 24.4324 8.46055 24.4268C8.44061 24.4259 8.41928 24.4237 8.39655 24.4204C8.15329 24.4246 7.9293 24.559 7.72457 24.8237C7.65907 24.9147 7.60127 25.0111 7.55178 25.1117C7.46886 25.2863 7.4107 25.4716 7.37898 25.6622V25.6622ZM5.48464 25.0477C5.46999 25.0459 5.45292 25.0437 5.43344 25.0413C5.32438 25.0493 5.21877 25.083 5.12531 25.1398C5.03185 25.1965 4.9532 25.2747 4.89586 25.3678C4.8427 25.4429 4.79562 25.5221 4.75507 25.6046C4.69195 25.7474 4.64888 25.8982 4.62707 26.0527C4.62299 26.0863 4.61872 26.1183 4.61427 26.1487C4.61135 26.2113 4.60922 26.271 4.60787 26.328C4.60992 26.3628 4.61205 26.3969 4.61427 26.4304L4.90226 26.4368C4.90923 26.506 4.92208 26.5746 4.94066 26.6416L4.64627 26.6352C4.65425 26.6725 4.66278 26.7087 4.67187 26.744L4.97266 26.7504C4.99316 26.7992 5.01449 26.844 5.03666 26.8849C5.09555 26.9981 5.18402 27.0932 5.29265 27.1601C5.31043 27.1675 5.32749 27.1739 5.34384 27.1793C5.32698 27.1829 5.30986 27.185 5.29265 27.1857C5.18401 27.2135 5.06923 27.2045 4.96626 27.1601C5.03809 27.2134 5.123 27.2463 5.212 27.2554C5.301 27.2644 5.39078 27.2492 5.47184 27.2113C5.49001 27.2025 5.50718 27.1918 5.52304 27.1793C5.53833 27.1738 5.55329 27.1674 5.56784 27.1601C5.56836 27.1591 5.56864 27.158 5.56864 27.1569C5.56864 27.1558 5.56836 27.1547 5.56784 27.1537C5.65028 27.0939 5.72174 27.0203 5.77903 26.9361C5.94665 26.7062 6.04442 26.4328 6.06062 26.1487C6.06589 26.117 6.06803 26.0849 6.06702 26.0527C6.08325 25.8151 6.03224 25.5778 5.91982 25.3678C5.84754 25.223 5.72105 25.1126 5.56784 25.0605C5.54041 25.0545 5.51262 25.0502 5.48464 25.0478V25.0477ZM14.2972 11.4389C14.276 11.4512 14.2567 11.4663 14.2396 11.4837C14.2086 11.5256 14.1893 11.5749 14.1837 11.6266C14.178 11.6784 14.1863 11.7307 14.2076 11.7782C14.2187 11.802 14.2339 11.8236 14.2524 11.8422C14.258 11.8493 14.2645 11.8557 14.2716 11.8614C14.2812 11.8712 14.2919 11.8798 14.3036 11.887C14.3362 11.9069 14.3743 11.9159 14.4124 11.9126C14.4433 11.9137 14.474 11.9072 14.5018 11.8939C14.5297 11.8805 14.5539 11.8606 14.5724 11.8358C14.5943 11.8118 14.6108 11.7834 14.6207 11.7524C14.6306 11.7215 14.6338 11.6888 14.63 11.6566C14.6308 11.6235 14.625 11.5906 14.6129 11.5598C14.6008 11.529 14.5827 11.501 14.5596 11.4773C14.5403 11.4539 14.5158 11.4353 14.488 11.423C14.4602 11.4108 14.4299 11.4053 14.3996 11.4069C14.3632 11.4085 14.328 11.4195 14.2972 11.4389V11.4389ZM14.3804 10.0371C14.3744 10.0311 14.368 10.0247 14.3612 10.0179C14.3198 9.98385 14.2676 9.96569 14.214 9.96665C14.1636 9.96864 14.1158 9.98916 14.0796 10.0243C14.0745 10.0318 14.0679 10.0383 14.0604 10.0435C14.0183 10.0936 13.9956 10.1572 13.9964 10.2227C13.9964 10.2281 13.9964 10.2323 13.9964 10.2355C13.9991 10.2976 14.0241 10.3567 14.0668 10.4019C14.0873 10.4256 14.113 10.4442 14.1418 10.4564C14.1707 10.4686 14.2019 10.4741 14.2332 10.4723C14.2438 10.474 14.2546 10.474 14.2652 10.4723C14.3143 10.4637 14.3579 10.4361 14.3868 10.3955C14.4095 10.3718 14.4269 10.3436 14.4379 10.3127C14.449 10.2819 14.4533 10.249 14.4508 10.2163C14.4514 10.1497 14.4262 10.0854 14.3804 10.0371ZM14.0092 8.73123C13.9898 8.70747 13.9654 8.68828 13.9378 8.675C13.9101 8.66173 13.8799 8.6547 13.8492 8.65441C13.8187 8.65556 13.7887 8.66297 13.7612 8.67619C13.7337 8.6894 13.7092 8.70814 13.6892 8.73123C13.6466 8.78362 13.624 8.84937 13.6252 8.91686C13.6278 8.98403 13.6552 9.04785 13.702 9.09609C13.7218 9.11897 13.7464 9.13716 13.7741 9.14933C13.8017 9.16151 13.8318 9.16738 13.862 9.16651C13.8839 9.16628 13.9057 9.16194 13.926 9.15371C13.9634 9.14185 13.9967 9.11966 14.022 9.0897C14.0606 9.04547 14.0811 8.98835 14.0796 8.92967C14.0819 8.9213 14.0819 8.91244 14.0796 8.90407C14.0804 8.87197 14.0745 8.84005 14.0624 8.81031C14.0503 8.78057 14.0322 8.75365 14.0092 8.73124V8.73123ZM18.7707 17.4368C18.7703 17.4703 18.777 17.5036 18.7902 17.5345C18.8034 17.5653 18.8229 17.5931 18.8475 17.616C18.8832 17.6511 18.9285 17.6749 18.9777 17.6845C19.0269 17.694 19.0778 17.689 19.1241 17.6699C19.1705 17.6508 19.2102 17.6185 19.2384 17.5771C19.2665 17.5357 19.2819 17.4869 19.2826 17.4368C19.2823 17.4033 19.2754 17.3702 19.2622 17.3395C19.249 17.3087 19.2298 17.2809 19.2058 17.2575C19.1585 17.2094 19.0941 17.1819 19.0266 17.1807C18.9593 17.1824 18.8951 17.2099 18.8474 17.2576C18.7998 17.3052 18.7723 17.3694 18.7707 17.4368ZM22.7513 17.7888C22.752 17.7552 22.7455 17.7219 22.7322 17.691C22.719 17.6601 22.6993 17.6323 22.6745 17.6096H22.6809C22.6574 17.5863 22.6294 17.568 22.5986 17.5559C22.5678 17.5438 22.5348 17.5381 22.5017 17.5392C22.4331 17.5379 22.3667 17.5632 22.3162 17.6096C22.2702 17.6579 22.2449 17.7222 22.2458 17.7888C22.2443 17.822 22.2498 17.8551 22.2619 17.8859C22.274 17.9168 22.2925 17.9448 22.3162 17.9681C22.3403 17.9927 22.3692 18.0123 22.4011 18.0255C22.433 18.0387 22.4672 18.0453 22.5017 18.0449C22.5345 18.0457 22.5669 18.0393 22.5968 18.026C22.6267 18.0127 22.6533 17.9929 22.6745 17.9681H22.6809C22.7052 17.9453 22.7241 17.9174 22.7363 17.8864C22.7485 17.8554 22.7536 17.8221 22.7513 17.7888ZM20.9402 17.4368C20.9169 17.4131 20.8889 17.3947 20.8581 17.3825C20.8272 17.3704 20.7941 17.3649 20.761 17.3664C20.6944 17.3656 20.6301 17.3908 20.5818 17.4368C20.535 17.485 20.5076 17.5488 20.505 17.616C20.5052 17.6495 20.512 17.6826 20.5252 17.7134C20.5384 17.7442 20.5577 17.772 20.5818 17.7952C20.6051 17.8192 20.633 17.8384 20.6637 17.8516C20.6945 17.8647 20.7275 17.8717 20.761 17.8721C20.7946 17.8729 20.8281 17.8665 20.859 17.8533C20.8899 17.84 20.9176 17.8202 20.9402 17.7952C20.9652 17.7727 20.985 17.745 20.9982 17.714C21.0115 17.6831 21.0179 17.6497 21.017 17.616C21.0167 17.5825 21.0097 17.5495 20.9965 17.5187C20.9833 17.4879 20.9642 17.4601 20.9402 17.4368ZM24.3193 17.9553C24.3192 17.9218 24.3123 17.8886 24.2991 17.8578C24.2859 17.8271 24.2667 17.7992 24.2425 17.776C24.2193 17.7519 24.1915 17.7326 24.1607 17.7194C24.1299 17.7062 24.0968 17.6994 24.0633 17.6992C23.996 17.7014 23.9321 17.7288 23.8841 17.776C23.8599 17.7992 23.8407 17.827 23.8275 17.8578C23.8143 17.8886 23.8074 17.9218 23.8073 17.9553C23.8067 17.9889 23.8132 18.0222 23.8265 18.0531C23.8397 18.084 23.8594 18.1118 23.8841 18.1345C23.9073 18.1587 23.9351 18.1779 23.9659 18.1911C23.9967 18.2043 24.0298 18.2112 24.0633 18.2113C24.0969 18.2122 24.1304 18.2058 24.1613 18.1925C24.1922 18.1793 24.2199 18.1595 24.2425 18.1345C24.2673 18.1118 24.287 18.0841 24.3003 18.0532C24.3135 18.0223 24.32 17.9889 24.3193 17.9553ZM31.2375 5.38983C31.2522 5.21683 31.2045 5.04428 31.1031 4.90335L28.6264 6.33721C28.4973 6.19671 28.4031 6.02789 28.3512 5.84432L30.1815 4.15442C30.3213 4.15006 30.4599 4.18087 30.5847 4.24404C30.6073 4.25331 30.6286 4.26184 30.6487 4.26964C30.5239 4.1322 30.3712 4.02307 30.2007 3.94959C30.1662 3.93565 30.1299 3.92285 30.0919 3.91118C29.9448 3.86335 29.792 3.83537 29.6375 3.82796C29.4238 3.81844 29.2103 3.8514 29.0093 3.92494C28.8084 3.99847 28.624 4.11112 28.4669 4.25637C28.3098 4.40162 28.183 4.57659 28.0939 4.77115C28.0049 4.9657 27.9553 5.17599 27.948 5.38984C27.9441 5.54508 27.9613 5.70012 27.9992 5.85072C28.0404 6.01392 28.1074 6.16951 28.1976 6.31161C28.2017 6.31569 28.2039 6.31782 28.204 6.31801C28.2082 6.32229 28.2103 6.32442 28.2104 6.3244C28.2656 6.40632 28.3277 6.48341 28.396 6.55485V6.56125C28.4166 6.58362 28.4379 6.60495 28.46 6.62526C28.5718 6.73666 28.6989 6.83151 28.8376 6.90691C29.0534 7.01995 29.2917 7.08337 29.5351 7.09254H29.5415C29.7568 7.10628 29.9726 7.07526 30.1752 7.00144C30.3779 6.92763 30.5631 6.81262 30.7191 6.66366C30.8885 6.53259 31.0153 6.35445 31.0839 6.15157L29.1703 6.71487C29.0611 6.67585 28.9577 6.622 28.8632 6.55484L31.2375 5.43464C31.2404 5.45215 31.2404 5.43721 31.2375 5.38983H31.2375Z" fill="white"/>
</g>
<defs>
<clipPath id="clip0_518_206">
<rect width="32" height="32" fill="white"/>
</clipPath>
</defs>
</svg>
