<svg viewBox="0 0 32 32"  xmlns="http://www.w3.org/2000/svg">
<path d="M20.5307 1C22.8007 1.00275 25.0189 1.67822 26.9052 2.94108C28.7915 4.20393 30.2611 5.99751 31.1285 8.09523C31.996 10.193 32.2222 12.5007 31.7787 14.7269C31.3351 16.9532 30.2418 18.998 28.6366 20.6031C27.0315 22.2083 24.9867 23.3016 22.7604 23.7452C20.5342 24.1887 18.2264 23.9625 16.1287 23.0951C14.031 22.2276 12.2374 20.758 10.9746 18.8717C9.71172 16.9854 9.03625 14.7672 9.03349 12.4972C9.03349 9.44793 10.2448 6.52358 12.4009 4.36744C14.5571 2.21131 17.4814 1 20.5307 1ZM0 31.622H5.56764V1H0V31.622Z" fill="white"/>
</svg>
