<svg viewBox="0 0 32 32" xmlns="http://www.w3.org/2000/svg">
  <path d="M12.3322 16C11.4152 16 10.6667 16.7485 10.6667 17.6655C10.6667 18.5825 11.4152 19.331 12.3322 19.331C13.2491 19.331 13.9977 18.5825 13.9977 17.6655C13.9977 16.7485 13.2491 16 12.3322 16Z" fill="white"/>
  <path d="M16.0187 23.2795C16.655 23.2795 18.8257 23.2047 19.9673 22.0632C20.1357 21.8947 20.1357 21.6327 20.0047 21.4456C19.8363 21.2772 19.5556 21.2772 19.3871 21.4456C18.6573 22.1567 17.1415 22.4187 16.0374 22.4187C14.9333 22.4187 13.3988 22.1567 12.6877 21.4456C12.5193 21.2772 12.2386 21.2772 12.0702 21.4456C11.9018 21.614 11.9018 21.8947 12.0702 22.0632C13.193 23.186 15.3825 23.2795 16.0187 23.2795Z" fill="white"/>
  <path d="M18.0023 17.6655C18.0023 18.5825 18.7509 19.331 19.6678 19.331C20.5848 19.331 21.3333 18.5825 21.3333 17.6655C21.3333 16.7485 20.5848 16 19.6678 16C18.7509 16 18.0023 16.7485 18.0023 17.6655Z" fill="white"/>
  <path fill-rule="evenodd" clip-rule="evenodd" d="M32 16C32 24.8366 24.8366 32 16 32C7.16344 32 0 24.8366 0 16C0 7.16344 7.16344 0 16 0C24.8366 0 32 7.16344 32 16ZM24.3275 13.6608C25.6187 13.6608 26.6667 14.7088 26.6667 16C26.6667 16.9544 26.0865 17.7778 25.3193 18.152C25.3567 18.3766 25.3754 18.6012 25.3754 18.8444C25.3754 22.4374 21.2023 25.338 16.0374 25.338C10.8725 25.338 6.69941 22.4374 6.69941 18.8444C6.69941 18.6012 6.71813 18.3579 6.75555 18.1333C5.93216 17.7591 5.37076 16.9544 5.37076 16C5.37076 14.7088 6.41871 13.6608 7.70994 13.6608C8.32748 13.6608 8.9076 13.9228 9.3193 14.3158C10.9287 13.1368 13.1556 12.407 15.6444 12.3322L16.8234 6.75555C16.8608 6.64327 16.917 6.5497 17.0105 6.49356C17.1041 6.43742 17.2164 6.41871 17.3287 6.43742L21.2023 7.26081C21.4643 6.69941 22.0257 6.32514 22.6807 6.32514C23.5977 6.32514 24.3462 7.07368 24.3462 7.99064C24.3462 8.9076 23.5977 9.65614 22.6807 9.65614C21.7825 9.65614 21.0526 8.94503 21.0152 8.06549L17.5532 7.33567L16.4865 12.3322C18.9193 12.4257 21.1275 13.1743 22.7181 14.3158C23.1298 13.9041 23.6912 13.6608 24.3275 13.6608Z" fill="white"/>
</svg>
