<svg viewBox="0 0 32 32"  xmlns="http://www.w3.org/2000/svg">
<path d="M31.991 18.8496C31.8634 16.9924 30.3381 15.5002 28.4787 15.4101C27.7681 15.3757 27.0989 15.5416 26.5223 15.8561C26.4455 12.1578 23.4256 9.18288 19.7089 9.18288C18.7258 9.18288 17.792 9.3918 16.9481 9.76667C16.7665 9.84736 16.6508 10.0292 16.6508 10.228V22.3115C16.6508 22.5907 16.8771 22.817 17.1563 22.817H28.2943C30.4275 22.817 32.1397 21.0145 31.991 18.8496Z" fill="white"/>
<path d="M15.6654 9.96543C15.3843 9.96543 15.1565 10.1933 15.1565 10.4743V22.2949C15.1565 22.576 15.3844 22.8038 15.6654 22.8038C15.9464 22.8038 16.1744 22.5759 16.1744 22.2949V10.4743C16.1744 10.1933 15.9464 9.96543 15.6654 9.96543Z" fill="white"/>
<path d="M13.9814 11.2225C13.7003 11.2225 13.4725 11.4503 13.4725 11.7314V22.2949C13.4725 22.576 13.7003 22.8038 13.9814 22.8038C14.2624 22.8038 14.4903 22.5759 14.4903 22.2949V11.7314C14.4903 11.4503 14.2624 11.2225 13.9814 11.2225Z" fill="white"/>
<path d="M12.2973 11.7953C12.0162 11.7953 11.7884 12.0231 11.7884 12.3041V22.2949C11.7884 22.576 12.0163 22.8038 12.2973 22.8038C12.5784 22.8038 12.8062 22.5759 12.8062 22.2949V12.3041C12.8062 12.023 12.5784 11.7953 12.2973 11.7953Z" fill="white"/>
<path d="M10.6133 11.0316C10.3322 11.0316 10.1044 11.2594 10.1044 11.5405V22.2949C10.1044 22.576 10.3322 22.8038 10.6133 22.8038C10.8943 22.8038 11.1221 22.5759 11.1221 22.2949V11.5405C11.1221 11.2594 10.8943 11.0316 10.6133 11.0316Z" fill="white"/>
<path d="M8.92916 11.5407C8.64806 11.5407 8.42027 11.7685 8.42027 12.0496V22.2949C8.42027 22.576 8.64813 22.8038 8.92916 22.8038C9.21018 22.8038 9.43804 22.5759 9.43804 22.2949V12.0496C9.43804 11.7685 9.21025 11.5407 8.92916 11.5407Z" fill="white"/>
<path d="M7.24513 12.5589C6.96403 12.5589 6.73625 12.7868 6.73625 13.0678V22.2949C6.73625 22.576 6.9641 22.8038 7.24513 22.8038C7.52616 22.8038 7.75401 22.5759 7.75401 22.2949V13.0678C7.75408 12.7867 7.52623 12.5589 7.24513 12.5589Z" fill="white"/>
<path d="M5.5611 14.5317C5.28 14.5317 5.05222 14.7596 5.05222 15.0406V22.2949C5.05222 22.576 5.28007 22.8038 5.5611 22.8038C5.8422 22.8038 6.06998 22.5759 6.06998 22.2949V15.0406C6.06998 14.7596 5.84213 14.5317 5.5611 14.5317Z" fill="white"/>
<path d="M3.87701 15.359C3.59591 15.359 3.36812 15.5869 3.36812 15.8679V22.2949C3.36812 22.576 3.59598 22.8038 3.87701 22.8038C4.15803 22.8038 4.38589 22.5759 4.38589 22.2949V15.8679C4.38589 15.5869 4.15811 15.359 3.87701 15.359Z" fill="white"/>
<path d="M2.19298 15.5488C1.91188 15.5488 1.6841 15.7767 1.6841 16.0577V22.105C1.6841 22.3861 1.91195 22.6139 2.19298 22.6139C2.47401 22.6139 2.70186 22.3861 2.70186 22.105V16.0577C2.70186 15.7767 2.47401 15.5488 2.19298 15.5488Z" fill="white"/>
<path d="M0.508882 16.8776C0.227782 16.8776 0 17.1055 0 17.3865V20.8712C0 21.1523 0.227853 21.3801 0.508882 21.3801C0.789911 21.3801 1.01776 21.1523 1.01776 20.8712V17.3865C1.01776 17.1054 0.789982 16.8776 0.508882 16.8776Z" fill="white"/>
</svg>
