<svg viewBox="0 0 24 24" fill="currentColor" >
<path d="M14.9979 5C18.8639 5 21.9979 8.13401 21.9979 12C21.9979 15.7855 18.9931 18.8691 15.2385 18.9959L14.9979 19H9.00212C5.13612 19 2.00212 15.866 2.00212 12C2.00212 8.21455 5.0069 5.1309 8.76147 5.00406L9.00212 5H14.9979ZM14.75 12.5C14.0596 12.5 13.5 13.0596 13.5 13.75C13.5 14.4404 14.0596 15 14.75 15C15.4404 15 16 14.4404 16 13.75C16 13.0596 15.4404 12.5 14.75 12.5ZM8 9C7.62031 9 7.30651 9.28215 7.25685 9.64823L7.25 9.75V11.248L5.75 11.2487C5.33579 11.2487 5 11.5845 5 11.9987C5 12.3784 5.28215 12.6922 5.64823 12.7419L5.75 12.7487L7.25 12.748V14.25C7.25 14.6642 7.58579 15 8 15C8.3797 15 8.69349 14.7178 8.74315 14.3518L8.75 14.25V12.748L10.25 12.7487C10.6642 12.7487 11 12.413 11 11.9987C11 11.6191 10.7178 11.3053 10.3518 11.2556L10.25 11.2487L8.75 11.248V9.75C8.75 9.33579 8.41421 9 8 9ZM16.75 9C16.0596 9 15.5 9.55964 15.5 10.25C15.5 10.9404 16.0596 11.5 16.75 11.5C17.4404 11.5 18 10.9404 18 10.25C18 9.55964 17.4404 9 16.75 9Z" fill="currentColor"/>
</svg>
