<svg viewBox="0 0 24 24" fill="currentColor" >
<path d="M24 24H0C0 23.2656 0.441406 22.582 1.32422 21.9492C2.20703 21.3164 3.40625 20.7891 4.92188 20.3672L3 7.5C3 7.03125 3.64453 6.17969 4.93359 4.94531C6.22266 3.71094 7.60156 2.57812 9.07031 1.54688C10.5391 0.515625 11.5156 0 12 0C12.4844 0 13.4609 0.515625 14.9297 1.54688C16.3984 2.57812 17.7773 3.71094 19.0664 4.94531C20.3555 6.17969 21 7.03125 21 7.5L19.0781 20.3672C20.5937 20.7891 21.793 21.3164 22.6758 21.9492C23.5586 22.582 24 23.2656 24 24Z" fill="currentColor"/>
</svg>
