<svg viewBox="0 0 24 24"
  xmlns="http://www.w3.org/2000/svg">
  <path d="M12 1.99896C17.5237 1.99896 22.0016 6.47681 22.0016 12.0005C22.0016 17.5242 17.5237 22.0021 12 22.0021C6.4763 22.0021 1.99845 17.5242 1.99845 12.0005C1.99845 6.47681 6.4763 1.99896 12 1.99896ZM11.9962 10.2495C11.4834 10.2499 11.0609 10.6362 11.0035 11.1336L10.9968 11.2502L11.0004 16.7518L11.0073 16.8684C11.0653 17.3657 11.4883 17.7515 12.0011 17.7511C12.5139 17.7508 12.9364 17.3645 12.9938 16.8671L13.0004 16.7505L12.9968 11.2489L12.99 11.1323C12.932 10.635 12.509 10.2492 11.9962 10.2495ZM12.0004 6.5C11.3093 6.5 10.7489 7.06032 10.7489 7.75152C10.7489 8.44271 11.3093 9.00304 12.0004 9.00304C12.6916 9.00304 13.252 8.44271 13.252 7.75152C13.252 7.06032 12.6916 6.5 12.0004 6.5Z" fill="currentColor"/>
</svg>
