<svg viewBox="0 0 24 24" fill="currentColor" >
<path d="M12.9794 5.54617L10.41 2.43217C10.2964 2.29462 10.1327 2.20781 9.95512 2.19081C9.77749 2.17381 9.60038 2.22801 9.46269 2.34151L7.21202 4.19817L10.6374 8.35017L12.888 6.49351C13.1754 6.25684 13.216 5.83284 12.9794 5.54617V5.54617Z" fill="currentColor"/>
<path d="M19.6953 16.6809L15.5433 13.2556C15.5433 13.2556 13.9467 15.3436 12.206 17.3569C10.882 18.8889 8.14399 18.8336 6.60199 17.2916C5.05999 15.7496 5.00533 13.0116 6.53666 11.6876C8.54999 9.94691 10.638 8.35024 10.638 8.35024L7.21266 4.19824C7.21266 4.19824 3.79799 6.81691 2.80399 7.81824C-0.841342 11.4902 -0.854009 17.4302 2.80466 21.0889C6.46332 24.7476 12.4033 24.7342 16.0753 21.0896C17.0767 20.0956 19.6953 16.6809 19.6953 16.6809V16.6809Z" fill="currentColor"/>
<path d="M18.3473 10.9138L21.4613 13.4831C21.748 13.7198 21.7887 14.1438 21.552 14.4304L19.6953 16.6811L15.5433 13.2558L17.4 11.0051C17.4562 10.9369 17.5252 10.8804 17.6033 10.8389C17.6813 10.7973 17.7667 10.7716 17.8547 10.7631C17.9427 10.7546 18.0315 10.7636 18.116 10.7894C18.2005 10.8153 18.2791 10.8575 18.3473 10.9138V10.9138Z" fill="currentColor"/>
<path d="M15.8113 2.81559L14.64 1.62026L15.9306 0.356923C15.9346 0.352923 15.9333 0.346923 15.9366 0.342923C15.9473 0.330256 15.9506 0.316923 15.9546 0.300923C15.9593 0.284923 15.9633 0.271589 15.9613 0.255589C15.9606 0.250256 15.9646 0.245589 15.964 0.240256C15.9613 0.228923 15.9506 0.224256 15.9453 0.214923C15.94 0.204256 15.942 0.191589 15.9333 0.182923C15.9293 0.178923 15.9233 0.180256 15.9186 0.176923C15.9053 0.166256 15.8906 0.162923 15.874 0.158256C15.8593 0.154256 15.8466 0.150256 15.832 0.151589C15.8266 0.152256 15.8213 0.147589 15.816 0.148923L12.392 0.986923C12.3709 0.992278 12.3516 1.00302 12.3359 1.0181C12.3203 1.03318 12.3088 1.05207 12.3026 1.07292C12.2968 1.09386 12.2965 1.11596 12.3019 1.13703C12.3073 1.15809 12.3181 1.17736 12.3333 1.19292L13.5046 2.38892L12.2146 3.65292C12.2106 3.65692 12.212 3.66292 12.2086 3.66692C12.198 3.67959 12.1946 3.69359 12.19 3.70959C12.1853 3.72559 12.1813 3.73826 12.1833 3.75426C12.184 3.75959 12.1793 3.76426 12.1806 3.77026C12.1846 3.78692 12.196 3.79892 12.206 3.81159C12.2093 3.81626 12.208 3.82226 12.212 3.82692L12.2193 3.83426C12.2473 3.85826 12.2826 3.86359 12.3173 3.85826C12.322 3.85759 12.3246 3.86226 12.3293 3.86092L15.752 3.02292C15.773 3.01741 15.7923 3.00651 15.8078 2.9913C15.8234 2.97608 15.8347 2.95708 15.8407 2.93616C15.8467 2.91524 15.8471 2.89312 15.842 2.87198C15.8368 2.85084 15.8263 2.8314 15.8113 2.81559ZM14.3746 1.70826L14.378 1.70492L14.3746 1.70826ZM23.8853 10.0703L22.5153 9.10826L23.5533 7.63026C23.5566 7.62559 23.554 7.62026 23.5566 7.61559C23.5646 7.60092 23.5653 7.58759 23.5666 7.57092C23.568 7.55426 23.57 7.54092 23.5653 7.52492C23.564 7.51959 23.5673 7.51492 23.5646 7.50959C23.56 7.49892 23.5486 7.49626 23.542 7.48759C23.5346 7.47826 23.534 7.46626 23.524 7.45892C23.5193 7.45559 23.5133 7.45826 23.5086 7.45559C23.4933 7.44759 23.4786 7.44692 23.4613 7.44559C23.446 7.44426 23.4326 7.44292 23.4186 7.44692C23.4133 7.44826 23.408 7.44492 23.4026 7.44759L20.19 8.89626C20.1703 8.90531 20.1532 8.91937 20.1406 8.93702C20.128 8.95468 20.1202 8.97533 20.118 8.99692C20.1163 9.01859 20.1201 9.04033 20.1292 9.06006C20.1383 9.07979 20.1524 9.09685 20.17 9.10959L21.54 10.0716L20.5026 11.5496C20.4993 11.5543 20.502 11.5596 20.4993 11.5643C20.4913 11.5789 20.4906 11.5929 20.4893 11.6096C20.488 11.6256 20.486 11.6396 20.4906 11.6549C20.492 11.6603 20.4886 11.6656 20.4913 11.6709C20.4986 11.6863 20.512 11.6963 20.524 11.7069C20.528 11.7109 20.528 11.7169 20.5326 11.7203L20.5413 11.7256C20.5566 11.734 20.5736 11.7388 20.591 11.7398C20.6085 11.7407 20.6259 11.7377 20.642 11.7309C20.646 11.7296 20.65 11.7336 20.654 11.7316L23.866 10.2823C23.8857 10.2732 23.9027 10.2591 23.9154 10.2415C23.928 10.2238 23.9358 10.2032 23.938 10.1816C23.9392 10.1601 23.935 10.1387 23.9258 10.1192C23.9166 10.0998 23.9027 10.0829 23.8853 10.0703V10.0703ZM22.2706 9.24359L22.2733 9.23959L22.2706 9.24359Z" fill="currentColor"/>
</svg>
