<svg viewBox="0 0 24 24" fill="currentColor" >
<path d="M18.4923 2.33034L21.671 5.50911C22.5497 6.38779 22.5497 7.81241 21.671 8.69109L19.2476 11.1137C20.2631 11.4315 21 12.3797 21 13.5V18.5C21 19.8807 19.8807 21 18.5 21H5.5C4.11929 21 3 19.8807 3 18.5V5.50001C3 4.11929 4.11929 3.00001 5.5 3.00001H10.5C11.621 3.00001 12.5697 3.73786 12.8869 4.7544L15.3103 2.33034C16.189 1.45166 17.6136 1.45166 18.4923 2.33034ZM11 13H5V18.5C5 18.7761 5.22386 19 5.5 19H11V13ZM18.5 13H13V19H18.5C18.7761 19 19 18.7761 19 18.5V13.5C19 13.2239 18.7761 13 18.5 13ZM14.44 10.9993L13 9.55933V11L14.44 10.9993ZM10.5 5.00001H5.5C5.22386 5.00001 5 5.22386 5 5.50001V11H11V5.50001C11 5.22386 10.7761 5.00001 10.5 5.00001Z" fill="currentColor"/>
</svg>
