<svg xmlns="http://www.w3.org/2000/svg" viewBox="0 0 138.35 266"><path d="M138.35,196.74q-1.29-.74-2.29-1.74c-7,16-30,1-45,4,0-4,9,1,6-6-3,2-8,2-11.34,5.07l-10.66-1.11s0-3.92,.01-7.82c-.01-3.14-.01-5.14-.01-8.14,8,3,15,7,24.33,5.54,3.29-.42,6.58-.85,6.58-.85,0,0,2.87,2.32,5.73,4.64,3.36,3.67,10.36,7.67,16.36,5.67-3,0-1-5-4-5l-1,2c-6,0-8-6-13-8,9-3,15,5,23,7,0-1-1-2-1-3,1-1,2-1,2.72-1.18l-1.43-2.64-3.71,2.02-6.06-2.81,2.47-1.33-1.42-2.64-4.45,2.39-3.32-1.54s-4.09,.52-8.18,1.05c-4.61,1.68-9.61,1.68-11.61-4.32-5,2-1,4,0,6-15,2-30-12-20-22,4-5,14,3,21,9,3-5-6-6-8-10,13,0,21,0,29,11-1-3-2-6-4-9,3,0,5,0,8.34-.03l4.6,4.59,2.12-2.12-4.04-4.04,4.14-5.05-2.32-1.9c-3.84,9.54-15.84,2.54-23.84,4.54,5-4,11-6,16-10,0,0-1-2-2-3-2,1-4,3-6,4-1-2-1-4-2-6-1,0-2,1-3,1,1,2,2,5,1,7-6,8-15,7-25,6,3-4.5,5.25-9.25,8.25-13.38s6.75-7.62,12.75-9.62c1,0,1-3,2-5,1,3,3,2,4,0-5,0-1-7-3-5-5,5-8,14-16,11-1,0-1-3-3-4s-4,0-5,2c5,1,6,6,5,10-2,5-6,9-9,14-9-9-9-26,0-34,3-3,7,1,11,1,0-2,0-4,2-6-6,0-11,2-17,3,1-4-2-9,2-11,2-2,2,3,4,4,4,1,2-4,4-6-13,4-10-10-10-18,3,1,8,0,9,2,5,8,9,19,19,20-3-2,1-4,0-6-9,4-13-7-15-14,5,1,10,3,15.18,.19l4.26,1.71,1.11-2.79-3.28-1.31,2.97-4.46-2.5-1.66-3.83,5.75c-5.92,6.58-6.92-6.42-12.92-5.42,0,2,2,4,3,6-17,1-23-12-15-24,5-8,2,10,9,14v-3h4v-3h-4c-2-3-3-6-3.36-9.69,0,0,5.11-.31,10.22-.62l10.22-.62,1.6,1.77,2.23-2.01-1.44-1.6,.91-2.13c-4.37-1.09-7.37,.91-10.37,1.91,0-3,1-6,3-8-1,0-2-1-3-1-2,6-4,11-12.4,9.24-4.3,.26-8.6,.53-8.6,.53,0,0,0-3.67-.07-7.32,1.07-3.45-1.93-6.45,1.07-8.45,3-1,4,7,8,2-8-2,0-3-3-7-2,1-4,3-6,3-2-1-2-6-1-6,10-6,30,7,27-2,0-3-10,1-15-2,4-2,7-5,11-7-9-4-14,12-23,6-2-1-1-5-2-8,4,0,7,3,10,2,1,0,1-2-4-4l2-2c-1-1-2-1-3-2-1,1-1,4-2,4-5.99,0-1-7-3.99-9,3.49-1,6.99-2.5,10.49-4s7-3,10.5-4c0-1-1-2-1-3-3.5,1.5-6.75,2.75-10,4s-6.5,2.5-9.98,4c3.98-2,.98-8,6.98-8-2-3-5-3-8-4,3,5-3,5-3.99,8-.01,2,.99,2,2.99,1,1,4-4,6-6,3-1-2-1-5-3-7h-3c3,4,4,8,7,12-7,2-8-9-15-6,3,2,5,4,8,6-2,1-7-2-5,2,2,5,13-1,13,6,0,1-3,2-4,2-7,0-13-7-20-4,4,1,8,3,12,4-6-1-12,4-18,1,0,3,0,5,1,8,8-5,19-10,28-6v4c-2-1-4-2-6-2,0,0-1,2-1,3,1,2,3,0,5,1s1,3,0,3c-8,0-15,1-22,4-2,0-5-3-7-2-3,0,0,2,1,3h-4v3c6,2,12-4,18-4-1,2-5,3-1,6,3-7,10-8,16-7,0,3,0,7-.01,10.32l-10.73-1.67-.48,2.96,11.22,1.73v7.32c-7,1.33-13,1.33-20.41,3.59l-4.44-6.83c.85-1.44,.85-2.44,1.85-3.44-3,1-7-6-10-1,0,1,2,2,3.4,2.55l5.96,9.28-4.25,.75-10.51-3.47c-1.6-1.11,13.4-11.11-4.6-3.11,0,0,7,1-2.47,6.93l1.82,2.38,4.37-3.33,6.23,2.05c-1.94,1.96-2.94,2.96,.06,4.96,2-6,9-2,14-5,1,6-7,9-6,15l2-2c1,1,1,3,2,4,3-6,2-12,5-18,4,8,4-12,9,5,3-4,2-10,6-6,3,3,3,14,0,15-8,5-21,9-31,4,0,1-1,2-1,3,1,1,2,1,3,1l-3,3c11-1,22-6,33-6,0,3,1,6,0,9h-4c0-1,1-3,1-4-1-1-1-3-5,4-2,4-7-4-12-1,2,1,7-2,2,8,1,0,2,1,3,1,0-8,10-6,13-4,5,3,4,12,3,18-1,1-2,3-4,3-12,1-16-10-19-19-4,5-4-8-9,1,7,2,12,8,12,15-6-1-13-2-15-8-1,1-2,1-3,2,7,3,1,6-1,10,1,0,2,1,3,2,10-8,25-5,34,2,5,3,1,10-3,14-10,7-24,0-29-10-1,1-2,1-3,2,2,2,4,4,6,7-4-1-8-5-12-2-1,1,0,3,1,3,2,0,5-1,7,0,4,3,0,6-1.5,8.75-2,2-5,3.25-8.5,3.25,9,1,0,7,4,6,2.5-1,4.5-3.5,6.38-6.5,.62-3.5,3.62-6.5,5.62-9.5h-1c3,2,8,0,11,4-3,1-6,0-7,3,0,1,1,1,1,2,7-5,19-13,24-4,3,4-4,11-10,12-4,0-7,0-11-1,5,3,0,6,0,9-2-1-3-2-5-2,0,1-1,2-1,3,1,1,5-4,3,6,1,1,2,2,3,1,4-4,2-12,9-12-1,2-1,5-2,7h3c1-3,2-5.75,3.62-7.88s3.88-3.62,7.38-4.12c-.5,4.5,.75,10,.69,14.88-.06,4.88-1.44,9.13-7.19,11.14-2.13,.76-4.5,1.3-7,1.61-5,.62-10.5,.38-15.5-.62-6-1-7-7-2-12-1-1-2-4-6,4-1-4-5-4-8-2v3c6-3,9,4,12,8-6-1-11,5-18.03-1.1l-1.94,2.29,2.99,2.52-2.28,3.51,2.52,1.63,2.61-4.03s1.8-.21,4.5-.51c7.63-.33,16.63-2.33,24.63-2.33l-3,3,2,2c1-1,1-2,2-3,1,1,1,2,2,3,.5-4,2.5-5.75,5.25-6.5s6.25-.5,9.75-.5c0,4,0,7,.01,10.9-.01,5.7-.01,11.42-.01,11.42l-16.06-2.07,6.73-3.36-1.34-2.68-10.72,5.36-17.11-2.21-3.14-6.73-2.72,1.27,2.34,5.01-16.55-2.14-1.06-2.34-2.73,1.24,.82,1.8-1.51,1.51,2.12,2.12,1.44-1.44,29.08,3.75-7.46,5.4,1.76,2.43,10.04-7.27,12.14,1.57,2.5,8.89,2.89-.81-2.15-7.66,10.71,1.38v54.66h12s0-4.13,0-10.32c0-14.68,0-30.68,0-45.39v-10.32l7.43,.78-2.93,5.6q1.49,.66,2.49,1.66c2-10,12-7,19-4,2,0,1,4,1,6,5,0,3-5,2-7,5,0,11,2,16,1,0,5,10,0,4,10,4,1,5-2,8-3-3-1-5-4-7-6,4-1,9,1,13,1v-3c-1,0-2,0-3.26-.02l3.56-6.23Z" fill='white'/></svg>