<svg xmlns="http://www.w3.org/2000/svg" viewBox="0 0 137.13 267"><path d="M136.72,197.75q-1.32-.75-2.32-1.75c-7,16-30,1-44,4,2-2,5-3,7-4-9-4-16,10-23,1-1.5-2.5-1.75-5-1.62-7.5s.62-5,.62-7.5c2.5,1.5,5.07,2.56,7.68,3.33,2.61,.77,5.27,1.23,7.95,1.55,5.38,.62,10.88,.62,16.38,1.12,7,1,11,12,21,9-3,0-1-5-4-5l-1,2c-5,0-9-4-13-8,9-3,15,5,23,7,0-1-1-2-1-3,1-1,2-1,3-1-1-1-1-2-2-3-1,1-2,2-3,2-5-1-5-2-5-7-6,.75-14.81,3.19-22.22,1.83-2.47-.45-4.78-1.33-6.78-2.83-3.01-1,0,3,1,5-2.5,.17-5,0-7.38-.45-6.62-.55-12.62-4.55-15.62-10.55-1-5,0-13,6-13,7-1,11,9,19,8-4-2-5-5-9-7,11-2,22,2,29,11-1-4-3-6-4-10,3,1,5,1,7.62,1.12,2.38,.62,4.38,1.88,5.38,4.88,1-1,6,0-1.98-6.6l4.13-5.04-2.32-1.9-4.51,5.51c-6.33,.04-13.33-1.96-19.33-.96,4-5,11-6,16-10,0,0-1-2-2-3-2,1-4,3-6,4-1-2-1-5-2-7-1,0-3,1-3,1,0,3,2,6,1,8-6,7-16,7-25,6,4-9,9-19,20-22,2-1,3-4,3-6l2,2c4-2-1-6-3-8-2,7-5,13-12,12-3,0-5-5-11-4,12,6,4,23-4,22-4,0-5.5-5.25-5.5-11.5,0-3.12,.38-6.5,1.01-9.6,.49-6.9,5.49-11.9,13.49-9.9,1,1,6-2,2-3s-10,4-13-1c-2-3-2-7,1-9,2,0,3,3,5,4,3,1,1-3,3-4-5.5,1-8.75-2-10-6.12-.62-2.06-.75-4.41-.41-6.67-1.59-5.2,6.41-9.2,9.4-4.2,2.01,3,3.26,6.49,4.9,9.67s3.66,6.04,7.21,7.76c1.9,1.19,4.15,2.06,6.9,2.56-5-2,4-7-1-6-4,1.5-7-.5-9.25-3.62s-3.75-7.37-4.76-10.37c7.01,0,13.01,3.99,21.01-1.01-1,0-3-1-4-1,1-2,2-3,3-5-8,5-10,3-19,0,1,2,2,3,3,5-6,0-14-1-17-7-1.5-3-1.75-6.5-.99-9.87,.76-3.37,2.52-6.62,5.02-9.12,1.48,2.49,1.97,5.74,2.85,8.74,.87,3,2.12,5.75,5.12,7.25v-3h3v-3h-4c-2-3-2-7-2.98-9.99,1.99-.25,4.18-.19,6.38-.04s4.42,.4,6.48,.53c4.12,.25,7.62,0,9.12-2.5,4-5-5-1-10-1,1-3,3-5,4-8-1,0-2-1-3-1-1,11-13,9-21,10,1-5-5-16,3-15,2,0,3,6,6,1-2-1-3-2-4-3,1,0,2-1,3-1,0-1-1-2-1-3-2,2-5,3-7,3-2-1-1-4-1-6,9-2,20-3,27,4,2-2,3-4,0-8-5,4-9,1-14,0,3-3,11-3,9-9-5,2-9,7-14,9-7,2-9-3-9-9,3,0,9,5,11,0-5-1-3-2-5-6-1,1-2,4-4,3-8-8,5-12,11.12-13.5,2.64-.93,5.13-2,6.88-3.5-4-1.5-7.49-.49-10.84,1.14-3.16,1.86-6.16,4.86-10.16,4.86,1,0,2-1,3-1-1-2-4-4-3-6,2-2,7,2,7-1,1-3-4-2-6-5-1,4-6,6-5,11l2-2c0,3-1,6-3,6-4,0-2-10-10-9,2,4,6,7,7,12-6-2-11-5-16-9-3,5,6,7,9,9-3,0-6-1-8,0v3c5,3,11,0,16,0-1,2-1,5-1,7-8,1-20-11-26-4,5,1,10,3,15,4-7,0-11,4-20,1-4-1,4,5-1,7,11-2,21-9,32-5v4c-2-1-4-1-6-2,0,1,0,2-1,3,2,1,5,1,7,2-9,3-21,7-31,3-2-1-2,2,0,4h-4v3c7,3,12-5,19-4l-4,4c1,1,2,1,3,2,2-4,6-7,11-8,5,0,8,9,5,10s-7,0-11,0c3,7,17,4,9,13-5,4-12,2-18,2,0-1,0-3-1-3h-4c-3-2,1-5,3-7-4,0-7-4-11-1,4,4,7,7,10,12-8,2-14-3-20-7,0,3,3,7-2,8,4,3,9-4,12,1,0,1-1,2-2,3,6,1,11-4,17-3-3,3-2,10-8,12,2,2,5,4,8,3-3-6,3-11,3-16,0,1,1,3,2,2,1-2,1-5,2-7,4,2,1,9,7,9-2-3,0-8,2-5,3,2,4,7,3.62,11.85-.4,3.84-2.67,6.52-8.72,5.89-2.65,.61-5.28,1.45-7.9,2.14-5.25,1.38-10.5,2.12-16-.88,0,1-1,2-1,3,1,1,2,1,3,1l-3,3c5.5-.5,11-2,16.5-3.38,2.75-.69,5.5-1.34,8.25-1.83,2.75-.48,5.5-.79,8.24-.79,0,4,1.01,9-2.99,9-1,0,0-6-2-3-2,3.5-4.75,3.25-7.5,2.5s-5.5-2-7.5-.5c6,1-1,8,4,9,1-8,10-4,16-5,1,7-1,15-1,22-12,0-19-9-22-20-3,5-8-9-6,2,1,3,9,8,9,15-6-2-13-1-15-8-3,6,3,9-4,12,1,1,3,2,3,2,8-9,25-3,35,2,3,1,0,8-2,11-1.5,1.75-3.81,3.06-6.54,3.83-5.45,1.54-12.55,.9-18.1-2.76-2.77-1.83-5.16-4.42-6.75-7.87l-2.3,1.94,5.25,6.21s-3.05-.68-6.11-1.36l-6.12-1.37-.65,2.93,11.51,2.57s-1.75,2.71-3.51,5.42c-2.68,6.46-3.68,2.46-8.68,5.46,9,0-1,6,4,6,3,0,3-6,5.76-7.6,2.24-8.4,8.24-9.4,15.24-6.4-1,3-7,2-6,7,8-5,17-12,24-8,2,1,2,8,0,10-4,6-12,8-20,5,5,1,1,7-1,9-1,0-1-5-6,0,10,0,1,8,6,7,2-.5,2.5-3,3.37-5.63,.63-3.37,3.63-4.37,5.63-6.37-1,3-1,5-1,8,6-2,10-13,11-11,2.61,5.22,4,14,1.74,22.04-.51,1.83-2.94,2.54-5.12,3.21-2.18,.67-4.86,.88-8.11,.51-4.76,.75-9.51,1.25-14.51,.25-6-1-7-7-3-12-5-3-4,2-5,4-1-4-5-4-8-2v3c6-3,9,4,12,8-6,0-11,6-18-1l-2,2c7,2-1,8,2,7,4.5-2,10.25-3,16.12-3.75s11.88-1.25,16.88-2.25c-1,1-2,2-3,3l2,2c1-1,1-2,1-3,2,1,2,4,4,3,3-2-2-4-1-5,4-4,10-1,15-2v22c-5,0-11-1-16-2,3,0,6-1,7-3,0-1-1-2-1.98-3-4.51,4-10.27,5.5-16.02,5s-11.5-3-16-7c-2-1,0,3,1,5-7,1-22-5-19-1,6,7,20,3,31,6-3,1-6,3-8,5,5,.5,8.75-2,12.38-3.62s7.13-2.38,11.63,1.62c1,1,2,5,3,8,6.01-3-3-7,.01-8,6.02-2,9.03-.75,10.4,2.19s1.11,7.58,.6,12.35c0,4.04,0,8.59,0,13.14v27.32h12v-20.89c0-3.87,0-8,.01-12.12,.99-10.98-1.01-28.98,2.99-30.98,2-1,3,3,4,6,3-9,12-8,19-4,1,0,1,6,2,6,5,2,2-4,1-7,8,0,18,0,22,8,0,1-1,3-2,4,4,2,6-2,9-3-3-2-6-4-8-7,4,1,9,0,13,2,0-1,3-3-3.13-3.8l3.45-6.45Z" fill='white'/></svg>