<svg viewBox="0 0 32 32"  xmlns="http://www.w3.org/2000/svg">
<g clip-path="url(#clip0_518_193)">
<path d="M4.17197 0.197972C2.77614 1.11925 0.026083 4.63112 0 5.5521V7.0766C0 9.00903 1.62497 10.7075 3.10035 10.7075C4.8719 10.7075 6.34794 9.07543 6.34807 7.13835C6.34807 9.07543 7.7735 10.7075 9.54519 10.7075C11.317 10.7075 12.6967 9.07543 12.6967 7.13835C12.6967 9.07543 14.2123 10.7075 15.984 10.7075H16.0161C17.7879 10.7075 19.3036 9.07543 19.3036 7.13835C19.3036 9.07543 20.6834 10.7075 22.4549 10.7075C24.2266 10.7075 25.6521 9.07543 25.6521 7.13835C25.6521 9.07543 27.1284 10.7075 28.8998 10.7075C30.3752 10.7075 32.0001 9.00932 32.0001 7.0766V5.5521C31.974 4.63097 29.224 1.11896 27.8284 0.197972C23.49 0.0286481 20.4824 -0.000635607 15.9999 8.92375e-05C11.5176 0.000524144 5.4066 0.0783724 4.17171 0.197972H4.17197ZM12.6742 9.79737C12.5048 10.1256 12.295 10.426 12.0508 10.6897C11.3821 11.4165 10.4654 11.8671 9.45481 11.8671C8.48235 11.8681 7.54831 11.4452 6.8533 10.6891C6.61098 10.4252 6.42684 10.1431 6.25821 9.81462L6.25743 9.8152C6.08893 10.1443 5.85419 10.4262 5.61136 10.6904C4.91607 11.4459 3.98214 11.8685 3.00984 11.8675C2.88803 11.8675 2.76127 11.8301 2.65877 11.791C2.51635 13.4396 2.45623 15.0151 2.43497 16.1638L2.43471 16.1703C2.4321 16.7537 2.4295 17.2334 2.42689 17.8998C2.45428 21.3588 2.11872 29.1108 3.79885 31.0156C6.40245 31.6904 11.1934 31.9977 15.9998 31.9996H16.0006C20.8069 31.9977 25.5978 31.6904 28.2014 31.0156C29.8815 29.1107 29.546 21.3586 29.5734 17.8997C29.5705 17.2334 29.5682 16.7537 29.5655 16.1702L29.5652 16.1637C29.544 15.0147 29.4839 13.4393 29.3415 11.7907C29.239 11.8298 29.1124 11.8672 28.9904 11.8672C28.0181 11.8682 27.0842 11.4456 26.3889 10.6901C26.1461 10.426 25.9113 10.1441 25.7427 9.81491L25.7419 9.81433C25.5732 10.1428 25.3891 10.4251 25.1468 10.6888C24.4518 11.4448 23.5179 11.8677 22.5455 11.8667C21.535 11.8667 20.6182 11.4158 19.9494 10.6891C19.7052 10.4254 19.4954 10.125 19.326 9.79679C19.1585 10.1247 18.9506 10.425 18.7084 10.6891C18.0132 11.445 17.0791 11.8678 16.1066 11.8668C16.0714 11.8668 16.0362 11.8651 16.001 11.8639H16.0001C15.9649 11.8651 15.9296 11.8668 15.894 11.8668C14.9216 11.8679 13.9875 11.4451 13.2923 10.6892C13.0501 10.4251 12.8422 10.1248 12.6746 9.79694L12.6742 9.79737ZM10.0026 13.6376L10.0023 13.639H10.0042C11.0623 13.6415 12.0022 13.639 13.1668 15.0519C14.0834 14.9451 15.0411 14.8917 15.9997 14.8933H16.0005C16.959 14.8919 17.9168 14.9451 18.8335 15.0519C19.9981 13.6389 20.938 13.6414 21.996 13.639H21.9978L21.9976 13.6376C22.4975 13.6376 24.4971 13.6376 25.8905 17.9877L27.3871 23.9553C28.4961 28.3948 27.032 28.5034 25.2057 28.5073C22.4972 28.3953 20.9976 26.2089 20.9976 24.0227C19.4983 24.2958 17.7493 24.4324 16.0003 24.4326H15.9995C14.2504 24.4326 12.5014 24.2958 11.0023 24.0227C11.0023 26.2089 9.50254 28.3953 6.79422 28.5073C4.96789 28.5034 3.50385 28.395 4.6129 23.9553L6.10993 17.9878C7.50328 13.6377 9.50293 13.6377 10.0028 13.6377L10.0026 13.6376ZM15.9997 17.0562V17.0571C15.9971 17.06 13.1484 19.9681 12.6363 21.0024L14.5017 20.9194V22.7277C14.5017 22.8124 15.2503 22.7779 15.9997 22.7393H16.0005C16.7496 22.7779 17.4983 22.8124 17.4983 22.7277V20.9194L19.3637 21.0024C18.8515 19.9681 16.0003 17.0571 16.0003 17.0571V17.0562L15.9999 17.0565L15.9997 17.0562Z" fill="currentColor"/>
</g>
<defs>
<clipPath id="clip0_518_193">
<rect width="32" height="32" fill="white"/>
</clipPath>
</defs>
</svg>
